<?xml version="1.0" standalone="no"?>
<!DOCTYPE svg PUBLIC "-//W3C//DTD SVG 20010904//EN"
 "http://www.w3.org/TR/2001/REC-SVG-20010904/DTD/svg10.dtd">
<svg version="1.0" xmlns="http://www.w3.org/2000/svg"
 width="260.000000pt" height="260.000000pt" viewBox="0 0 260.000000 260.000000"
 preserveAspectRatio="xMidYMid meet">
<metadata>
Created by potrace 1.11, written by Peter Selinger 2001-2013
</metadata>
<g transform="translate(0.000000,260.000000) scale(0.100000,-0.100000)"
fill="#000000" stroke="none">
<path d="M645 2344 c-242 -46 -441 -214 -516 -437 -32 -94 -34 -247 -5 -357
29 -111 89 -234 167 -340 65 -89 892 -930 939 -955 43 -22 85 -24 126 -5 45
21 863 838 936 935 186 249 250 512 175 730 -156 461 -779 593 -1129 240 l-37
-37 -44 42 c-63 58 -103 87 -169 121 -127 65 -301 89 -443 63z"/>
</g>
</svg>
