<?xml version="1.0" standalone="no"?>
<!DOCTYPE svg PUBLIC "-//W3C//DTD SVG 20010904//EN"
 "http://www.w3.org/TR/2001/REC-SVG-20010904/DTD/svg10.dtd">
<svg version="1.0" xmlns="http://www.w3.org/2000/svg"
 width="260.000000pt" height="260.000000pt" viewBox="0 0 260.000000 260.000000"
 preserveAspectRatio="xMidYMid meet">
<metadata>
Created by potrace 1.11, written by Peter Selinger 2001-2013
</metadata>
<g transform="translate(0.000000,260.000000) scale(0.100000,-0.100000)"
fill="#000000" stroke="none">
<path d="M736 2303 c-4 -4 -17 -8 -29 -9 -82 -5 -203 -47 -281 -97 -26 -16
-76 -58 -94 -79 -9 -9 -20 -14 -26 -11 -6 3 -8 3 -4 -2 4 -4 -6 -23 -23 -43
-17 -19 -35 -44 -40 -56 -5 -11 -18 -36 -29 -53 -11 -18 -17 -33 -14 -33 4 0
2 -6 -4 -12 -5 -7 -13 -34 -17 -60 -4 -27 -12 -48 -17 -48 -5 0 -7 -4 -4 -9 3
-5 8 -51 10 -102 3 -52 13 -119 22 -149 22 -68 19 -59 35 -100 7 -19 12 -39
10 -45 -1 -5 1 -7 5 -2 4 4 15 -7 23 -25 9 -18 30 -53 46 -77 17 -24 35 -51
40 -59 18 -27 69 -83 158 -174 48 -49 87 -94 87 -99 0 -5 4 -9 9 -9 13 0 231
-218 231 -231 0 -5 4 -9 8 -9 15 0 312 -302 306 -311 -3 -5 -1 -8 5 -7 5 2 34
-20 63 -47 34 -32 61 -50 76 -49 12 1 22 -3 22 -7 0 -8 23 8 59 41 9 8 34 30
54 48 21 17 36 32 33 32 -3 0 7 13 22 28 15 15 30 26 35 24 4 -2 7 1 7 5 0 16
51 63 62 57 6 -4 8 -3 4 4 -8 14 382 404 396 396 6 -4 8 -2 4 4 -7 11 169 194
178 185 3 -4 6 0 6 8 0 8 17 33 39 55 21 23 41 49 44 58 4 10 12 14 18 10 7
-4 9 -3 5 4 -3 6 0 16 7 24 7 7 16 21 20 31 3 9 11 17 17 17 6 0 9 4 6 8 -3 5
6 25 20 45 14 20 22 37 18 37 -3 0 -2 6 3 13 6 6 18 36 28 65 9 28 20 50 23
48 8 -5 9 4 16 155 4 95 1 129 -20 204 -3 11 -6 26 -6 33 -1 6 -6 12 -11 12
-5 0 -6 7 -3 16 3 8 2 12 -4 9 -6 -3 -10 -1 -10 6 0 7 -19 37 -42 68 -24 31
-42 59 -40 64 1 4 -3 7 -9 7 -15 0 -39 26 -31 35 4 4 3 5 -3 4 -14 -5 -96 57
-87 65 3 4 0 4 -9 1 -8 -3 -25 4 -37 15 -12 11 -22 19 -22 16 0 -3 -33 7 -72
21 -46 16 -103 27 -153 30 -44 2 -90 5 -102 7 -13 2 -23 0 -23 -3 0 -4 -30
-12 -66 -19 -120 -23 -286 -127 -352 -222 l-27 -38 -69 72 c-38 39 -68 74 -68
79 1 4 -1 6 -5 5 -5 -1 -39 15 -76 36 -97 55 -177 77 -282 80 -27 0 -53 4 -56
9 -3 4 -9 4 -13 0z"/>
</g>
</svg>
