<?xml version="1.0" encoding="UTF-8"?>
<svg width="300px" height="42px" viewBox="0 0 300 42" version="1.1" xmlns="http://www.w3.org/2000/svg" xmlns:xlink="http://www.w3.org/1999/xlink">
    <!-- Generator: Sketch 46.1 (44463) - http://www.bohemiancoding.com/sketch -->
    <title>grass</title>
    <desc>Created with Sketch.</desc>
    <defs></defs>
    <g id="Page-1" stroke="none" stroke-width="1" fill="none" fill-rule="evenodd">
        <g id="grass" stroke-width="2" stroke="#111111">
            <g id="Group-3" transform="translate(-2.000000, 17.000000)">
                <g id="Group" transform="translate(42.050777, 17.426497) rotate(-2.000000) translate(-42.050777, -17.426497) translate(29.550777, 1.426497)">
                    <polygon id="Polygon-2" fill="#32A15F" transform="translate(19.000000, 19.000000) rotate(8.000000) translate(-19.000000, -19.000000) " points="19 8 23 30 15 30"></polygon>
                    <polygon id="Polygon-2" fill="#178041" points="12 0 17 32 7 32"></polygon>
                    <polygon id="Polygon-2" fill="#178041" transform="translate(6.000000, 20.000000) rotate(-6.000000) translate(-6.000000, -20.000000) " points="6 9 10 31 2 31"></polygon>
                </g>
                <g id="Group" transform="translate(152.050777, 19.426497) scale(-1, 1) rotate(-2.000000) translate(-152.050777, -19.426497) translate(139.550777, 3.426497)">
                    <polygon id="Polygon-2" fill="#32A15F" transform="translate(19.000000, 19.000000) rotate(8.000000) translate(-19.000000, -19.000000) " points="19 8 23 30 15 30"></polygon>
                    <polygon id="Polygon-2" fill="#178041" points="12 0 17 32 7 32"></polygon>
                    <polygon id="Polygon-2" fill="#178041" transform="translate(6.000000, 20.000000) rotate(-6.000000) translate(-6.000000, -20.000000) " points="6 9 10 31 2 31"></polygon>
                </g>
                <g id="Group-2" transform="translate(233.000000, 0.000000)" stroke-linecap="square">
                    <polygon id="Polygon-2" fill="#116934" transform="translate(7.000000, 21.000000) rotate(-12.000000) translate(-7.000000, -21.000000) " points="7 10 11 32 3 32"></polygon>
                    <polygon id="Polygon-2" fill="#178041" points="14 0 19 32 9 32"></polygon>
                    <polygon id="Polygon-2" fill="#1C8546" transform="translate(18.000000, 26.000000) rotate(8.000000) translate(-18.000000, -26.000000) " points="18 6 23 46 13 46"></polygon>
                    <polygon id="Polygon-2" fill="#32A15F" transform="translate(23.000000, 24.000000) rotate(15.000000) translate(-23.000000, -24.000000) " points="23 13 27 35 19 35"></polygon>
                </g>
                <g id="Group-2" transform="translate(15.000000, 24.500000) scale(-1, 1) translate(-15.000000, -24.500000) translate(0.000000, 1.000000)" stroke-linecap="square">
                    <polygon id="Polygon-2" fill="#116934" transform="translate(7.000000, 21.000000) rotate(-12.000000) translate(-7.000000, -21.000000) " points="7 10 11 32 3 32"></polygon>
                    <polygon id="Polygon-2" fill="#178041" points="14 0 19 32 9 32"></polygon>
                    <polygon id="Polygon-2" fill="#1C8546" transform="translate(18.000000, 26.000000) rotate(8.000000) translate(-18.000000, -26.000000) " points="18 6 23 46 13 46"></polygon>
                    <polygon id="Polygon-2" fill="#32A15F" transform="translate(23.000000, 24.000000) rotate(15.000000) translate(-23.000000, -24.000000) " points="23 13 27 35 19 35"></polygon>
                </g>
            </g>
        </g>
    </g>
</svg>