<?xml version="1.0" encoding="UTF-8"?>
<svg width="175px" height="42px" viewBox="0 0 175 42" version="1.1" xmlns="http://www.w3.org/2000/svg" xmlns:xlink="http://www.w3.org/1999/xlink">
    <!-- Generator: Sketch 46.1 (44463) - http://www.bohemiancoding.com/sketch -->
    <title>lights</title>
    <desc>Created with Sketch.</desc>
    <defs>
        <linearGradient x1="50%" y1="50%" x2="76.0264521%" y2="92.9655656%" id="linearGradient-1">
            <stop stop-color="#F3CA7C" offset="0%"></stop>
            <stop stop-color="#E2A767" offset="100%"></stop>
        </linearGradient>
        <path d="M6,12 C9.3137085,12 12,9.3137085 12,6 C12,2.6862915 9.47924805,1.36694336 6,1.3500312e-13 C2.7890625,0.848632813 0,2.6862915 0,6 C0,9.3137085 2.6862915,12 6,12 Z" id="path-2"></path>
        <filter x="-95.8%" y="-70.8%" width="291.7%" height="291.7%" filterUnits="objectBoundingBox" id="filter-3">
            <feMorphology radius="1" operator="dilate" in="SourceAlpha" result="shadowSpreadOuter1"></feMorphology>
            <feOffset dx="0" dy="3" in="shadowSpreadOuter1" result="shadowOffsetOuter1"></feOffset>
            <feGaussianBlur stdDeviation="3" in="shadowOffsetOuter1" result="shadowBlurOuter1"></feGaussianBlur>
            <feComposite in="shadowBlurOuter1" in2="SourceAlpha" operator="out" result="shadowBlurOuter1"></feComposite>
            <feColorMatrix values="0 0 0 0 0.976470588   0 0 0 0 0.921568627   0 0 0 0 0.815686275  0 0 0 0.25 0" type="matrix" in="shadowBlurOuter1"></feColorMatrix>
        </filter>
        <path d="M5,0 L7,0 L7,0 C8.65685425,-3.04359188e-16 10,1.34314575 10,3 L10,8 L2,8 L2,3 L2,3 C2,1.34314575 3.34314575,3.04359188e-16 5,0 Z" id="path-4"></path>
        <path d="M6,12 C9.3137085,12 12,9.3137085 12,6 C12,2.6862915 9.47924805,1.36694336 6,1.3500312e-13 C2.7890625,0.848632813 0,2.6862915 0,6 C0,9.3137085 2.6862915,12 6,12 Z" id="path-5"></path>
        <filter x="-95.8%" y="-70.8%" width="291.7%" height="291.7%" filterUnits="objectBoundingBox" id="filter-6">
            <feMorphology radius="1" operator="dilate" in="SourceAlpha" result="shadowSpreadOuter1"></feMorphology>
            <feOffset dx="0" dy="3" in="shadowSpreadOuter1" result="shadowOffsetOuter1"></feOffset>
            <feGaussianBlur stdDeviation="3" in="shadowOffsetOuter1" result="shadowBlurOuter1"></feGaussianBlur>
            <feComposite in="shadowBlurOuter1" in2="SourceAlpha" operator="out" result="shadowBlurOuter1"></feComposite>
            <feColorMatrix values="0 0 0 0 0.976470588   0 0 0 0 0.921568627   0 0 0 0 0.815686275  0 0 0 0.15 0" type="matrix" in="shadowBlurOuter1"></feColorMatrix>
        </filter>
        <path d="M5,0 L7,0 L7,0 C8.65685425,-3.04359188e-16 10,1.34314575 10,3 L10,8 L2,8 L2,3 L2,3 C2,1.34314575 3.34314575,3.04359188e-16 5,0 Z" id="path-7"></path>
    </defs>
    <g id="Page-1" stroke="none" stroke-width="1" fill="none" fill-rule="evenodd">
        <g id="lights">
            <g id="Group" transform="translate(-10.000000, -8.000000)">
                <path d="M0,0 C20.7526023,15.859973 38.0859356,25.1835734 52,27.9708009 C63.3589585,28.5930657 80.6922919,19.2694654 104,0" id="Line" stroke="#111111" stroke-width="2" stroke-linecap="square"></path>
                <g id="Group-2" transform="translate(47.000000, 25.000000)">
                    <g id="Group-3" transform="translate(0.000000, 6.000000)">
                        <g id="Oval-14">
                            <use fill="black" fill-opacity="1" filter="url(#filter-3)" xlink:href="#path-2"></use>
                            <use stroke="#111111" stroke-width="2" fill="url(#linearGradient-1)" fill-rule="evenodd" xlink:href="#path-2"></use>
                        </g>
                    </g>
                    <g id="Rectangle">
                        <use fill="#106C34" fill-rule="evenodd" xlink:href="#path-4"></use>
                        <path stroke="#111111" stroke-width="2" d="M3,7 L9,7 L9,3 C9,1.8954305 8.1045695,1 7,1 L5,1 C3.8954305,1 3,1.8954305 3,3 L3,7 Z"></path>
                    </g>
                </g>
            </g>
            <g id="Group" transform="translate(78.000000, -7.000000)">
                <path d="M0,0 C20.1842448,18.2682292 37.5175781,27.5918295 52,27.9708009 C61.7903646,30.4225586 79.1236979,21.0989583 104,0" id="Line" stroke="#111111" stroke-width="2" stroke-linecap="square"></path>
                <g id="Group-2" transform="translate(49.000000, 25.000000)">
                    <g id="Group-3" transform="translate(0.000000, 6.000000)">
                        <g id="Oval-14">
                            <use fill="black" fill-opacity="1" filter="url(#filter-6)" xlink:href="#path-5"></use>
                            <use stroke="#111111" stroke-width="2" fill="url(#linearGradient-1)" fill-rule="evenodd" xlink:href="#path-5"></use>
                        </g>
                    </g>
                    <g id="Rectangle">
                        <use fill="#354769" fill-rule="evenodd" xlink:href="#path-7"></use>
                        <path stroke="#111111" stroke-width="2" d="M3,7 L9,7 L9,3 C9,1.8954305 8.1045695,1 7,1 L5,1 C3.8954305,1 3,1.8954305 3,3 L3,7 Z"></path>
                    </g>
                </g>
            </g>
        </g>
    </g>
</svg>