<?xml version="1.0" encoding="UTF-8"?>
<svg width="286px" height="286px" viewBox="0 0 286 286" version="1.1" xmlns="http://www.w3.org/2000/svg" xmlns:xlink="http://www.w3.org/1999/xlink">
    <!-- Generator: Sketch 46 (44423) - http://www.bohemiancoding.com/sketch -->
    <title>logo-color</title>
    <desc>Created with Sketch.</desc>
    <defs>
        <linearGradient x1="160.831078%" y1="-68.9217493%" x2="23.8779883%" y2="100%" id="linearGradient-1">
            <stop stop-color="#58709E" offset="0%"></stop>
            <stop stop-color="#2A3853" offset="100%"></stop>
        </linearGradient>
        <linearGradient x1="-109.839669%" y1="-126.186459%" x2="69.032842%" y2="92.2937022%" id="linearGradient-2">
            <stop stop-color="#58709E" offset="0%"></stop>
            <stop stop-color="#2A3853" offset="100%"></stop>
        </linearGradient>
        <linearGradient x1="100%" y1="46.5114474%" x2="2.81608737%" y2="46.5114474%" id="linearGradient-3">
            <stop stop-color="#F5F3EB" offset="0%"></stop>
            <stop stop-color="#AFA790" offset="100%"></stop>
        </linearGradient>
        <linearGradient x1="129.032629%" y1="46.5114474%" x2="2.81608737%" y2="46.5114474%" id="linearGradient-4">
            <stop stop-color="#E1DBCA" offset="0%"></stop>
            <stop stop-color="#7D7664" offset="100%"></stop>
        </linearGradient>
        <linearGradient x1="70.8591269%" y1="64.5974864%" x2="0%" y2="46.5114474%" id="linearGradient-5">
            <stop stop-color="#F9F8F4" offset="0%"></stop>
            <stop stop-color="#DFD9C8" offset="100%"></stop>
        </linearGradient>
        <linearGradient x1="50%" y1="-32.2851562%" x2="50%" y2="98.2058503%" id="linearGradient-6">
            <stop stop-color="#F5F3EB" offset="0%"></stop>
            <stop stop-color="#AFA790" offset="100%"></stop>
        </linearGradient>
        <linearGradient x1="50%" y1="3.27261991%" x2="50%" y2="98.2058503%" id="linearGradient-7">
            <stop stop-color="#F5F3EB" offset="0%"></stop>
            <stop stop-color="#AFA790" offset="100%"></stop>
        </linearGradient>
        <linearGradient x1="-10.1328125%" y1="88.4375%" x2="100%" y2="4.75260417%" id="linearGradient-8">
            <stop stop-color="#D7B742" offset="0%"></stop>
            <stop stop-color="#FFFFFF" offset="100%"></stop>
        </linearGradient>
        <linearGradient x1="63.391012%" y1="20.2741922%" x2="63.391012%" y2="44.4079644%" id="linearGradient-9">
            <stop stop-color="#F3CA7C" offset="0%"></stop>
            <stop stop-color="#E2A767" offset="100%"></stop>
        </linearGradient>
        <linearGradient x1="56.6581958%" y1="11.4649481%" x2="56.6581964%" y2="50%" id="linearGradient-10">
            <stop stop-color="#F3CA7C" offset="0%"></stop>
            <stop stop-color="#E2A767" offset="100%"></stop>
        </linearGradient>
        <linearGradient x1="50%" y1="18.1402541%" x2="50%" y2="58.9698585%" id="linearGradient-11">
            <stop stop-color="#F3CA7C" offset="0%"></stop>
            <stop stop-color="#E2A767" offset="100%"></stop>
        </linearGradient>
        <linearGradient x1="29.4565291%" y1="100%" x2="61.804349%" y2="-9.83280864%" id="linearGradient-12">
            <stop stop-color="#178041" offset="0%"></stop>
            <stop stop-color="#32A15F" offset="100%"></stop>
        </linearGradient>
        <linearGradient x1="50%" y1="0%" x2="50%" y2="100%" id="linearGradient-13">
            <stop stop-color="#B7B09C" offset="0%"></stop>
            <stop stop-color="#989281" offset="100%"></stop>
        </linearGradient>
        <rect id="path-14" x="0" y="1" width="203" height="86"></rect>
        <linearGradient x1="50%" y1="76.77059%" x2="50%" y2="89.9989048%" id="linearGradient-16">
            <stop stop-color="#F3CA7C" offset="0%"></stop>
            <stop stop-color="#E2A767" offset="100%"></stop>
        </linearGradient>
        <polygon id="path-17" points="0.701171875 0.397460938 34.6367188 32.4550781 34.6367188 43.9658203 214.423828 49.4316406 214.423828 39.15625 239 42 229.90625 136.582031 16.9316406 136.582031"></polygon>
    </defs>
    <g id="Page-1" stroke="none" stroke-width="1" fill="none" fill-rule="evenodd">
        <g id="logo-color">
            <g id="Logo" transform="translate(20.000000, 2.000000)">
                <g id="Sky---Shading" transform="translate(16.000000, 84.000000)">
                    <g id="Sky">
                        <polygon id="Path-9" fill="url(#linearGradient-1)" points="16.3886719 0.986328125 9.5546875 12.7285156 3.8359375 28.1933594 0.627929688 47.6113281 17.9482422 43.1240234"></polygon>
                        <polygon id="Path-3" fill="url(#linearGradient-2)" points="199.119141 2.45703125 199.119141 45.7246094 214.224609 50.7827148 210.251953 28.3144531"></polygon>
                    </g>
                </g>
                <g id="Silo" transform="translate(34.000000, 0.000000)" stroke="#111111" stroke-width="3" stroke-linecap="square">
                    <polyline id="Rectangle-4" fill="url(#linearGradient-3)" points="47 84 47 135 0 135 0 34 47 34 47 68"></polyline>
                    <g id="Group" transform="translate(1.000000, 46.000000)">
                        <path d="M34,1 L0,1" id="Line"></path>
                        <path d="M34,12 L0,12" id="Line"></path>
                        <path d="M34,23 L0,23" id="Line"></path>
                        <path d="M34,34 L0,34" id="Line"></path>
                        <path d="M34,45 L0,45" id="Line"></path>
                        <path d="M34,56 L0,56" id="Line"></path>
                        <path d="M34,67 L0,67" id="Line"></path>
                    </g>
                    <rect id="Rectangle-4" fill="url(#linearGradient-4)" transform="translate(23.500000, 28.500000) scale(1, -1) translate(-23.500000, -28.500000) " x="0" y="23" width="47" height="11"></rect>
                    <path d="M0.00480412796,23 C0.250362937,10.2557082 10.6776409,0 23.5048041,0 C36.3319674,0 46.7592453,10.2557082 47.0048041,23 L0.00480412796,23 Z" id="Combined-Shape" fill="url(#linearGradient-5)"></path>
                </g>
                <g id="Barn---Shading" transform="translate(74.000000, 39.000000)">
                    <polygon id="Path-7" fill="#6C654B" points="33.3193359 5.55664062 28.1005859 1.36425781 14.2734375 11.7958984 0.423828125 39.2158203 6.80664062 40.0595703 20.515625 14.6386719"></polygon>
                    <polygon id="Path-8" fill="#7D7764" points="30.1542969 0.944335937 122.533203 0.650390625 133.392578 14.2900391 46.4873047 15.1992187"></polygon>
                    <polygon id="Path-11" fill="#8E8976" points="46.4462891 15.4619141 58.8574219 41.6650391 145.148438 40.9658203 133.793945 14.3154297"></polygon>
                </g>
                <g id="Barn" transform="translate(74.000000, 40.000000)" stroke-width="3" stroke="#111111">
                    <g id="Group-2">
                        <polygon id="Rectangle" fill="url(#linearGradient-6)" stroke-linecap="square" points="58 40 141 40 141 90 58 90"></polygon>
                        <polygon id="Rectangle" fill="url(#linearGradient-7)" stroke-linecap="square" points="58 39 58 90 7 90 7 39 20 14 33 4 46 14"></polygon>
                        <polyline id="Path" points="139 40 145 40 134 14 123 0 28 0"></polyline>
                        <path d="M48,14 L133,14" id="Line" stroke-linecap="square"></path>
                        <polyline id="Path-2" points="7 39 0 39 14 11 28 0 33 4"></polyline>
                    </g>
                    <g id="Group-3" transform="translate(68.000000, 41.000000)" stroke-linecap="square">
                        <path d="M1.5,0.5 L1.5,48.5104155" id="Line"></path>
                        <path d="M13.5,0.5 L13.5,48.5104155" id="Line"></path>
                        <path d="M25.5,0.5 L25.5,48.5104155" id="Line"></path>
                        <path d="M37.5,0.5 L37.5,48.5104155" id="Line"></path>
                        <path d="M49.5,0.5 L49.5,48.5104155" id="Line"></path>
                        <path d="M61.5,0.5 L61.5,48.5104155" id="Line"></path>
                    </g>
                    <g id="Group-4" transform="translate(20.000000, 30.000000)" fill="url(#linearGradient-8)" stroke-linecap="square">
                        <rect id="Rectangle-3" x="0" y="33" width="25" height="30"></rect>
                        <rect id="Rectangle-3" x="8" y="0" width="8" height="14"></rect>
                    </g>
                </g>
                <g id="Grass-Right---Shading" transform="translate(103.000000, 126.000000)">
                    <path d="M0.130859375,7.90429688 C0.130859375,7.90429688 24.8789062,0.0431866405 64.6757812,0.02734375 C104.472656,0.0115008595 126.261719,7.96875 126.261719,7.96875 L126.775391,28.0996094 C126.775391,28.0996094 86.734375,14.0634647 64.9082031,13.375 C31.8232422,10.4189453 16.7011719,12.9550781 16.7011719,12.9550781 L0.130859375,7.90429688 Z" id="Path-10" fill="url(#linearGradient-9)"></path>
                    <path d="M19.9404297,12.6914063 C19.9404297,12.6914063 34.2314013,8.97267351 66.8876953,13.5585938 C99.5439893,18.144514 126.386719,27.6396484 126.386719,27.6396484 L121.895508,48.4921875 C121.895508,48.4921875 77.542845,31.484973 66.8876953,28.515625 C56.2325456,25.546277 42.2548828,23.3183594 42.2548828,23.3183594 L19.9404297,12.6914063 Z" id="Path-4" fill="url(#linearGradient-10)"></path>
                    <path d="M64.8417969,26.4550781 L114.948242,63.8945312 C114.948242,63.8945312 113.35498,70.4375 121.993164,46.9257812 C109.17041,39.0766602 93.3063965,34.2431641 93.3063965,34.2431641 L64.8417969,26.4550781 Z" id="Path-5" fill="url(#linearGradient-11)"></path>
                </g>
                <g id="Grass-Right" transform="translate(115.000000, 126.000000)" stroke="#111111" stroke-width="3">
                    <path d="M114.608714,7.86762651 C94.5931037,2.78871415 72.7999886,0 50,0 C32.9736231,0 16.5087466,1.55517486 0.926300213,4.45791762" id="Oval-5"></path>
                    <path d="M114.238492,19.5484772 C99.7127285,17.0547345 84.4536854,15.7258729 68.7148527,15.7258729 C53.4223331,15.7258729 38.5827775,16.9804369 24.4287166,19.3391426" id="Oval-5" transform="translate(69.333605, 17.637175) rotate(10.000000) translate(-69.333605, -17.637175) "></path>
                    <path d="M111.229183,36.526055 C101.635404,35.4848461 91.7799265,34.942887 81.7287733,34.942887 C72.3951712,34.942887 63.2303038,35.4102273 54.2870387,36.3107083" id="Oval-5" transform="translate(82.758111, 35.734471) rotate(20.000000) translate(-82.758111, -35.734471) "></path>
                </g>
                <g id="Grass-Left---Shading" transform="translate(16.000000, 125.000000)" fill="url(#linearGradient-12)">
                    <path d="M0.984375,5.65917969 C0.365234375,29.0325277 1.29394531,32.8212891 7.734375,56.8867187 C8.40059806,58.2227871 191.094631,57.5108814 190.417969,56.8867187 C150.517578,20.0820313 146.925781,19.3203125 103.157227,5.65917969 C59.3632813,-1.19042969 16.7207031,-1.45996094 0.984375,5.65917969 Z" id="Path-6"></path>
                </g>
                <g id="Grass-Left" transform="translate(16.000000, 125.000000)" stroke="#111111" stroke-width="3">
                    <path d="M8.16015625,55.7519531 C47.8808594,55.7519531 163.890625,55.7519531 184.609375,55.7519531 C151.125,-0.3828125 42.2480469,-8.04003906 0.298828125,6.6171875" id="Path-18"></path>
                </g>
                <g id="Fence" transform="translate(17.000000, 149.000000)" stroke="#111111" stroke-width="3">
                    <path d="M5,23 L202,23" id="Line" stroke-linecap="square"></path>
                    <path d="M5,14 L202,14" id="Line" stroke-linecap="square"></path>
                    <polyline id="Rectangle-6" fill="url(#linearGradient-13)" points="0 4.21052632 4 0 8 4.21052632 8 35"></polyline>
                    <polygon id="Rectangle-6" fill="url(#linearGradient-13)" points="22 4.21052632 26 0 30 4.21052632 30 32 22 32"></polygon>
                    <polygon id="Rectangle-6" fill="url(#linearGradient-13)" points="44 4.21052632 48 0 52 4.21052632 52 32 44 32"></polygon>
                    <polygon id="Rectangle-6" fill="url(#linearGradient-13)" points="67 4.21052632 71 0 75 4.21052632 75 32 67 32"></polygon>
                    <polygon id="Rectangle-6" fill="url(#linearGradient-13)" points="90 4.21052632 94 0 98 4.21052632 98 32 90 32"></polygon>
                    <polygon id="Rectangle-6" fill="url(#linearGradient-13)" points="113 4.21052632 117 0 121 4.21052632 121 32 113 32"></polygon>
                    <polygon id="Rectangle-6" fill="url(#linearGradient-13)" points="136 4.21052632 140 0 144 4.21052632 144 32 136 32"></polygon>
                    <polygon id="Rectangle-6" fill="url(#linearGradient-13)" points="158 4.21052632 162 0 166 4.21052632 166 32 158 32"></polygon>
                    <polygon id="Rectangle-6" fill="url(#linearGradient-13)" points="182 4.21052632 186 0 190 4.21052632 190 32 182 32"></polygon>
                    <polyline id="Rectangle-6" fill="url(#linearGradient-13)" points="204 35 204 4.21052632 208 0 212 4.21052632"></polyline>
                </g>
                <polygon id="Path-20" fill="#FFFFFF" opacity="0.601279438" points="54.1816406 180.992188 193.091797 180.992188 159.912109 226.978516 78.8222656 221.896484"></polygon>
                <g id="Ring" transform="translate(22.000000, 180.000000)">
                    <mask id="mask-15" fill="white">
                        <use xlink:href="#path-14"></use>
                    </mask>
                    <g id="Rectangle-7"></g>
                    <path d="M53.7592042,57.033487 C18.3567603,39.585202 -6,3.13701409 -6,-39 C-6,-98.0944682 41.9055318,-146 101,-146 C160.094468,-146 208,-98.0944682 208,-39 C208,2.64832718 184.204922,38.7390161 149.468065,56.418768 M133.433529,35.1523449 C161.456251,22.7094342 181,-5.36293934 181,-38 C181,-82.18278 145.18278,-118 101,-118 C56.81722,-118 21,-82.18278 21,-38 C21,-5.79106179 40.0343747,21.97216 67.4680941,34.6546353" id="Combined-Shape" stroke="#111111" stroke-width="3" fill="url(#linearGradient-16)" mask="url(#mask-15)"></path>
                    <path d="M2.5,1 L199.5,1" id="Line" stroke="#111111" stroke-width="3" stroke-linecap="square"></path>
                </g>
                <g id="Date" transform="translate(92.000000, 188.000000)" fill="#111111">
                    <path d="M1.01806641,4.19140625 C1.40543813,3.49869445 1.92268557,2.99170083 2.56982422,2.67041016 C3.21696287,2.34911949 3.93928638,2.18847656 4.73681641,2.18847656 C5.51611718,2.18847656 6.18945029,2.34342293 6.75683594,2.65332031 C7.32422159,2.9632177 7.76399583,3.44058922 8.07617188,4.08544922 C8.38834792,4.73030921 8.54443359,5.53808108 8.54443359,6.50878906 C8.54443359,7.57064333 8.35188995,8.44905251 7.96679688,9.14404297 C7.5817038,9.83903342 7.06559568,10.349445 6.41845703,10.675293 C5.77131838,11.001141 5.04899487,11.1617839 4.25146484,11.1572266 C3.47672139,11.1572266 2.80452759,11.0000016 2.23486328,10.6855469 C1.66519897,10.3710922 1.2231461,9.89144203 0.908691406,9.24658203 C0.594236709,8.60172204 0.437011719,7.79395017 0.437011719,6.82324219 C0.437011719,5.76138792 0.630694678,4.88411805 1.01806641,4.19140625 Z M5.56738281,4.58447266 C5.48762981,4.07177478 5.36230554,3.71289165 5.19140625,3.5078125 C5.02050696,3.30273335 4.7869481,3.20019531 4.49072266,3.20019531 C4.10790824,3.20019531 3.81282656,3.47476939 3.60546875,4.02392578 C3.39811094,4.57308217 3.29443359,5.42870513 3.29443359,6.59082031 C3.29443359,7.50684052 3.33886674,8.22232815 3.42773438,8.73730469 C3.51660201,9.25228122 3.64990146,9.61458229 3.82763672,9.82421875 C4.00537198,10.0338552 4.24007016,10.1386719 4.53173828,10.1386719 C4.90999538,10.1386719 5.19710188,9.86637642 5.39306641,9.32177734 C5.58903093,8.77717827 5.68701172,7.91927669 5.68701172,6.74804688 C5.68701172,5.81835473 5.64713582,5.09717053 5.56738281,4.58447266 Z M12.0717773,3.90429688 L11.1420898,6.22167969 L9.60400391,5.9140625 L10.0073242,2.33886719 L17.1166992,2.33886719 L17.581543,2.94042969 L13.8901367,13.6728516 L11.0395508,12.9140625 C11.6274443,11.7975205 12.2119112,10.5898502 12.7929688,9.29101562 C13.3740263,7.99218101 14.001787,6.54753399 14.6762695,4.95703125 L15.1547852,3.8359375 L12.0717773,3.90429688 Z M18.6992188,9.06884766 C18.8382168,8.85693253 19.0284819,8.69287167 19.2700195,8.57666016 C19.5115572,8.46044864 19.7781561,8.40234375 20.0698242,8.40234375 C20.3478204,8.40234375 20.5939117,8.46386657 20.8081055,8.58691406 C21.0222992,8.70996155 21.1874994,8.87060448 21.3037109,9.06884766 C21.4199225,9.26709083 21.4780273,9.48014209 21.4780273,9.70800781 C21.4780273,10.14551 21.3287775,10.4861641 21.0302734,10.7299805 C20.7317693,10.9737968 20.3341496,11.0957031 19.8374023,11.0957031 C19.6095366,11.0957031 19.3919281,11.0398769 19.1845703,10.9282227 C18.9772125,10.8165685 18.8097337,10.6616221 18.6821289,10.4633789 C18.5545241,10.2651357 18.4907227,10.04297 18.4907227,9.796875 C18.4907227,9.52343613 18.5602207,9.28076278 18.6992188,9.06884766 Z M24.6225586,9.80371094 L24.6225586,4.65625 C24.453938,4.69726583 24.1748066,4.74853485 23.7851563,4.81005859 C23.3955059,4.87158234 23.1209318,4.90462237 22.9614258,4.90917969 L22.7836914,3.65136719 C23.3305691,3.55110627 23.9138966,3.35514469 24.5336914,3.06347656 C25.1534862,2.77180844 25.6365543,2.47786606 25.9829102,2.18164062 L25.9897461,2.18164062 L27.4731445,2.359375 L27.4731445,9.796875 L28.8676758,9.97460938 L28.8676758,11 L23.0913086,11 L23.0913086,9.97460938 L24.6225586,9.80371094 Z M31.0996094,6.24560547 C31.8675169,4.40217177 32.5135065,2.80371771 33.0375977,1.45019531 L33.543457,1.45019531 L35.7583008,2.56445312 C35.5167631,3.0292992 35.0997751,3.81884208 34.5073242,4.93310547 C33.9148733,6.04736885 33.3520534,7.10123201 32.8188477,8.09472656 L32.5043945,8.68945312 L31.8344727,9.67382812 L34.5483398,9.47558594 L34.8149414,7.0078125 L36.8041992,6.87109375 L36.8041992,9.31152344 L38.3354492,9.20214844 L38.3354492,11 L36.8041992,11 L36.8041992,13.2421875 L34.527832,13.2421875 L34.527832,11 L29.9477539,11 L29.3461914,10.1181641 C29.7472351,9.37987912 30.3317019,8.08903917 31.0996094,6.24560547 Z M39.7060547,9.06884766 C39.8450528,8.85693253 40.0353178,8.69287167 40.2768555,8.57666016 C40.5183931,8.46044864 40.784992,8.40234375 41.0766602,8.40234375 C41.3546563,8.40234375 41.6007476,8.46386657 41.8149414,8.58691406 C42.0291352,8.70996155 42.1943354,8.87060448 42.3105469,9.06884766 C42.4267584,9.26709083 42.4848633,9.48014209 42.4848633,9.70800781 C42.4848633,10.14551 42.3356135,10.4861641 42.0371094,10.7299805 C41.7386053,10.9737968 41.3409856,11.0957031 40.8442383,11.0957031 C40.6163726,11.0957031 40.3987641,11.0398769 40.1914063,10.9282227 C39.9840484,10.8165685 39.8165696,10.6616221 39.6889648,10.4633789 C39.56136,10.2651357 39.4975586,10.04297 39.4975586,9.796875 C39.4975586,9.52343613 39.5670566,9.28076278 39.7060547,9.06884766 Z M45.6293945,9.80371094 L45.6293945,4.65625 C45.4607739,4.69726583 45.1816426,4.74853485 44.7919922,4.81005859 C44.4023418,4.87158234 44.1277677,4.90462237 43.9682617,4.90917969 L43.7905273,3.65136719 C44.3374051,3.55110627 44.9207326,3.35514469 45.5405273,3.06347656 C46.1603221,2.77180844 46.6433902,2.47786606 46.9897461,2.18164062 L46.996582,2.18164062 L48.4799805,2.359375 L48.4799805,9.796875 L49.8745117,9.97460938 L49.8745117,11 L44.0981445,11 L44.0981445,9.97460938 L45.6293945,9.80371094 Z M51.5014648,4.84765625 C51.2234687,4.41015406 51.0844727,3.88151352 51.0844727,3.26171875 C51.0844727,2.68293981 51.242837,2.18050343 51.5595703,1.75439453 C51.8763037,1.32828563 52.3115207,1.00358185 52.8652344,0.780273438 C53.4189481,0.556965029 54.0444301,0.4453125 54.7416992,0.4453125 C55.4708695,0.4453125 56.0883764,0.548989849 56.5942383,0.756347656 C57.1001002,0.963705464 57.4806302,1.24511541 57.7358398,1.60058594 C57.9910495,1.95605646 58.1186523,2.35709412 58.1186523,2.80371094 C58.1186523,3.30045821 57.9682632,3.7436504 57.6674805,4.13330078 C57.3666977,4.52295117 56.9200876,4.83854046 56.3276367,5.08007812 C56.8061547,5.35351699 57.2174462,5.631509 57.5615234,5.9140625 C57.9056007,6.196616 58.1858713,6.53385221 58.4023438,6.92578125 C58.6188162,7.31771029 58.7270508,7.76659903 58.7270508,8.27246094 C58.7270508,8.86491182 58.5572934,9.37874131 58.2177734,9.81396484 C57.8782535,10.2491884 57.3940461,10.584146 56.7651367,10.8188477 C56.1362273,11.0535494 55.3956748,11.1708984 54.543457,11.1708984 C53.8279587,11.1708984 53.1751332,11.0774749 52.5849609,10.890625 C51.9947887,10.7037751 51.5208351,10.4086934 51.1630859,10.0053711 C50.8053368,9.60204876 50.6264648,9.09049789 50.6264648,8.47070312 C50.6264648,7.94661196 50.8007795,7.46924043 51.1494141,7.03857422 C51.4980486,6.607908 51.9982064,6.26497523 52.6499023,6.00976563 C52.1622697,5.67252436 51.779461,5.28515844 51.5014648,4.84765625 Z M55.9755859,3.89746094 C56.1054694,3.6331367 56.1704102,3.36881643 56.1704102,3.10449219 C56.1704102,2.56672908 56.0530611,2.15771625 55.8183594,1.87744141 C55.5836577,1.59716657 55.2316104,1.45703125 54.762207,1.45703125 C54.5388986,1.45703125 54.3315439,1.5014644 54.1401367,1.59033203 C53.9487295,1.67919966 53.7937831,1.81249911 53.675293,1.99023438 C53.5568028,2.16796964 53.4975586,2.38443883 53.4975586,2.63964844 C53.4975586,2.9130873 53.5818676,3.16031791 53.7504883,3.38134766 C53.9191089,3.60237741 54.1344388,3.80289624 54.3964844,3.98291016 C54.65853,4.16292408 55.00602,4.36913946 55.4389648,4.6015625 C55.6668306,4.39648335 55.8457025,4.16178518 55.9755859,3.89746094 Z M52.9506836,7.19580078 C52.8321934,7.46696099 52.7729492,7.7643213 52.7729492,8.08789062 C52.7729492,8.47526235 52.8413079,8.82047375 52.9780273,9.12353516 C53.1147468,9.42659657 53.3175442,9.66471268 53.5864258,9.83789062 C53.8553073,10.0110686 54.1788718,10.0976562 54.5571289,10.0976562 C54.8077812,10.0976562 55.0436187,10.0429693 55.2646484,9.93359375 C55.4856782,9.8242182 55.6634108,9.66699321 55.7978516,9.46191406 C55.9322923,9.25683491 55.9995117,9.01530087 55.9995117,8.73730469 C55.9995117,8.45475119 55.912924,8.20296334 55.7397461,7.98193359 C55.5665681,7.76090384 55.3489596,7.56722088 55.0869141,7.40087891 C54.8248685,7.23453693 54.468264,7.03287879 54.0170898,6.79589844 L53.449707,6.49511719 C53.2355133,6.69108171 53.0691738,6.92464057 52.9506836,7.19580078 Z" id="07.14.18"></path>
                </g>
                <g id="Initials" transform="translate(24.000000, 42.000000)" fill="#111111">
                    <path d="M44.3876508,181.823609 C43.4521064,181.877709 42.5922601,181.68059 41.8080861,181.232247 C41.023912,180.783904 40.3618744,180.126557 39.8219532,179.260188 C39.6218931,178.939167 39.4433325,178.618178 39.286266,178.297213 C39.1291995,177.976248 38.9463783,177.588108 38.737797,177.132781 C38.6549473,176.948139 38.5740189,176.773043 38.4950091,176.607488 C38.4159994,176.441932 38.3499815,176.316612 38.2969535,176.231522 L41.3069523,174.57317 L42.2433734,176.075772 L40.5354517,177.768418 C40.4694219,178.024362 40.56536,178.359253 40.8232687,178.773099 C41.151078,179.299109 41.6964091,179.52577 42.4592783,179.45309 C43.2221476,179.380409 44.1895275,178.978905 45.361447,178.248566 C46.1079172,177.783366 46.7150136,177.316422 47.1827542,176.847721 C47.6504948,176.37902 47.9552954,175.924607 48.097165,175.484468 C48.2390347,175.044329 48.195478,174.640549 47.9664936,174.273116 C47.7953578,173.998507 47.636431,173.810267 47.4897083,173.70839 C47.3429855,173.606513 47.1841437,173.53904 47.0131781,173.505969 L45.3244994,173.768988 L44.5944976,172.339114 L46.7675597,171.250669 C46.8698036,171.380266 46.9736294,171.499476 47.0790402,171.608305 C47.1844511,171.717133 47.3213485,171.850637 47.4897366,172.008821 C47.7859854,172.286006 48.0480651,172.553603 48.2759836,172.811619 C48.5039021,173.069635 48.7504276,173.411362 49.0155674,173.836811 C49.6036958,174.780535 49.9139865,175.681254 49.9464488,176.538996 C49.9789111,177.396737 49.7614725,178.187358 49.2941263,178.910881 C48.8267801,179.634405 48.1405939,180.278169 47.2355471,180.842194 C46.2724845,181.442374 45.3231952,181.769509 44.3876508,181.823609 Z M46.4593518,168.811661 C46.0291221,168.759085 45.5765128,168.813307 45.1015103,168.974329 C44.5485407,169.161257 43.8472638,169.58446 42.9976587,170.24395 L37.689453,174.364348 L38.2148844,175.375698 L37.3400835,176.054747 L34.2927496,172.128943 L35.1675506,171.449894 L35.9570908,172.143737 L40.1042952,168.924545 C41.6307045,167.739698 42.6452036,167.047401 43.147823,166.847635 C43.8979381,166.565368 44.6813871,166.521157 45.4981933,166.715001 C46.3149996,166.908845 47.1211335,167.380666 47.9166193,168.130476 L47.5660759,169.172758 C47.2584859,168.984601 46.8895816,168.864237 46.4593518,168.811661 Z M36.4859718,159.945529 C36.3530738,160.30725 36.1264829,160.846589 35.8061924,161.563561 C35.5454106,162.14849 35.3318106,162.645828 35.1653857,163.055592 C34.9989609,163.465356 34.8757152,163.827646 34.7956449,164.142474 L36.3091476,164.096953 L37.9553191,162.635695 L37.3428477,161.698583 L38.1148101,161.013334 L41.4185255,164.735113 L40.6414507,165.4249 L39.828968,164.756739 L33.9293348,169.993672 L34.4657515,170.906889 L33.6375535,171.642057 L30.4336756,168.032749 L31.2618737,167.297582 L32.0556859,167.872628 L35.1179739,165.154324 L30.0129799,165.581728 L30.6038535,166.556293 L29.7801935,167.296573 L26.9575135,164.116701 L27.7805993,163.386072 L28.7962027,164.221273 L32.2307662,164.198065 C32.2443152,163.753379 32.3494252,163.207618 32.5460993,162.560767 C32.7427735,161.913916 33.0130639,161.114889 33.3569787,160.163664 C33.5734907,159.563188 33.7321862,159.10697 33.8330701,158.794994 C33.9339541,158.483019 33.9783819,158.265341 33.966355,158.141953 L33.6437459,157.541681 L34.4208206,156.851894 L36.567328,159.270028 C36.6459883,159.358643 36.6188698,159.583807 36.4859718,159.945529 Z M31.7688056,156.888956 L25.8353747,162.177862 L26.6947821,163.217278 L25.9585345,164.044516 L22.1236224,160.631418 L24.7819449,155.475011 L25.5530708,154.248706 L24.444922,155.175059 L19.851271,158.60901 L15.9499755,155.13683 L16.686223,154.309592 L17.9408684,155.151697 L22.2918746,148.463574 L21.5788167,147.609317 L22.2696168,146.833143 L26.1351674,150.27351 L25.4443673,151.049684 L24.4825235,150.413266 L21.0052338,155.22514 L19.6364492,157.164095 L21.3182042,155.860584 L27.1249406,151.639431 L28.8560128,153.180097 L25.8324741,159.54887 L24.6469585,161.641785 L26.3215659,159.965863 L30.538723,155.803325 L29.5703447,154.721832 L30.2611448,153.945658 L33.4220112,156.758851 L32.731211,157.535025 L31.7688056,156.888956 Z" id="CJKM" transform="translate(32.949793, 164.332745) scale(-1, -1) translate(-32.949793, -164.332745) "></path>
                    <path d="M173.844011,150.564871 L178.415389,157.000821 L179.35882,156.582219 L180,157.484923 L175.798523,160.469182 L175.157343,159.566478 L176.097333,158.647309 L171.541786,152.233648 L169.879174,153.599019 L170.820747,156.577055 L169.456169,157.31156 L167.345093,153.713863 L173.981643,149 L174.583245,149.846982 L173.844011,150.564871 Z M165.436253,157.469654 L170.695721,163.365831 L171.536632,162.881335 L172.273686,163.707616 L168.621728,166.96521 L167.884675,166.138929 L168.584114,165.249412 L166.486697,162.898082 L164.023156,165.095593 L166.116024,167.441822 L167.01759,166.91238 L167.754643,167.738661 L164.133289,170.968957 L163.396236,170.142676 L164.008967,169.330504 L158.749499,163.434327 L157.900183,163.981274 L157.208626,163.205998 L160.82488,159.980252 L161.516437,160.755527 L160.865655,161.555847 L163.131412,164.095895 L165.594953,161.898384 L163.324647,159.353235 L162.388622,159.977527 L161.697066,159.202251 L165.359224,155.935557 L166.05078,156.710833 L165.436253,157.469654 Z M151.772104,171.353263 C152.148857,171.433971 152.714605,171.582458 153.469366,171.798728 C154.08505,171.974652 154.607396,172.116183 155.036419,172.223326 C155.465442,172.330469 155.841401,172.401542 156.164308,172.436548 L155.906487,170.94472 L154.228567,169.520577 L153.387011,170.258601 L152.600161,169.590758 L155.81996,165.7972 L156.612022,166.469466 L156.064818,167.367675 L162.078232,172.471588 L162.906826,171.812211 L163.750997,172.528705 L160.628499,176.207622 L159.784328,175.491128 L160.241982,174.624491 L157.120634,171.975232 L158.261354,176.968621 L159.143022,176.246713 L159.991615,176.957996 L157.240633,180.199195 L156.401673,179.487124 L157.085677,178.364363 L156.579893,174.967726 C156.13779,175.016825 155.582762,174.989495 154.914792,174.885737 C154.246822,174.781978 153.417864,174.626738 152.427893,174.420012 C151.803042,174.290096 151.329119,174.197135 151.006111,174.141125 C150.683103,174.085115 150.461376,174.071735 150.340925,174.100986 L149.792061,174.504721 L149,173.832456 L151.091985,171.367685 C151.168648,171.277362 151.395352,171.272554 151.772104,171.353263 Z" id="LHK" transform="translate(164.500000, 164.599597) scale(-1, -1) translate(-164.500000, -164.599597) "></path>
                </g>
                <g id="Diamond" transform="translate(74.000000, 208.000000)">
                    <g id="Shading" transform="translate(0.989899, 0.659933)" opacity="0.904098732">
                        <g id="Group-7">
                            <polygon id="Path-12" fill="#E6EBEF" points="37.6519295 0.764013836 24.0471019 27.3008966 70.5240195 27.3008966 55.5656657 0.250697075"></polygon>
                            <polygon id="Path-13" fill="#DEE3E7" points="24.8837792 27.5636402 47.1020987 71.1790815 70.0827217 27.5636402"></polygon>
                            <polygon id="Path-14" fill="#D1D8DE" points="55.6846439 0.434121868 73.9750702 0.280441636 95.9934815 27.6032996 70.4287997 27.6032996"></polygon>
                            <polygon id="Path-15" fill="#BEC3C7" points="70.5554372 27.5314045 47.2855235 71.1220711 95.7002249 28.2457945"></polygon>
                            <polyline id="Path-16" fill="#E9F8FF" points="38.830632 0.229628011 19.2438386 0.248218361 0.30522877 26.7890423 24.3390447 27.4502019"></polyline>
                            <polygon id="Path-17" fill="#BEC3C7" points="0.166420819 27.7557405 46.2618149 71.1902357 24.2370581 27.7557405"></polygon>
                        </g>
                    </g>
                    <g id="Outline" transform="translate(0.000000, 0.004584)" stroke-width="3">
                        <polygon id="Polygon" stroke="#111111" stroke-linecap="square" transform="translate(48.860399, 36.719632) rotate(-180.000000) translate(-48.860399, -36.719632) " points="49.5485735 0.934550894 97.7207977 44.9777273 77.0755588 72.5047126 23.3979375 72.5047126 -1.13686838e-13 44.9777273"></polygon>
                        <path d="M1.47867276,28.0520404 L94.993185,28.0520404" id="Line" stroke="#111111" stroke-linecap="square"></path>
                        <polyline id="Path-19" stroke="#000000" points="38.6060606 0.985314945 24.7474747 27.7125877 47.909081 71.3382288"></polyline>
                        <polyline id="Path-19" stroke="#000000" transform="translate(60.085854, 36.161772) scale(-1, 1) translate(-60.085854, -36.161772) " points="62.3636364 0.985314945 48.5050505 27.7125877 71.6666568 71.3382288"></polyline>
                    </g>
                </g>
                <g id="Outer" transform="translate(0.000000, 46.000000)">
                    <mask id="mask-18" fill="white">
                        <use xlink:href="#path-17"></use>
                    </mask>
                    <g id="Rectangle-2"></g>
                    <circle id="Oval" stroke="#111111" stroke-width="3" mask="url(#mask-18)" cx="123" cy="95" r="107"></circle>
                </g>
            </g>
        </g>
    </g>
</svg>