<?xml version="1.0" encoding="UTF-8"?>
<svg width="240px" height="75px" viewBox="0 0 240 75" version="1.1" xmlns="http://www.w3.org/2000/svg" xmlns:xlink="http://www.w3.org/1999/xlink">
    <!-- Generator: Sketch 46.1 (44463) - http://www.bohemiancoding.com/sketch -->
    <title>peach-shelf</title>
    <desc>Created with Sketch.</desc>
    <defs>
        <polygon id="path-1" points="13.3466667 1.2195122 19.4133333 1.2195122 18.4022222 12.195122 13.3466667 12.195122"></polygon>
        <linearGradient x1="21.7480469%" y1="8.77929688%" x2="57.0996094%" y2="60.9472656%" id="linearGradient-2">
            <stop stop-color="#F3CA7C" offset="0%"></stop>
            <stop stop-color="#E2A767" offset="100%"></stop>
        </linearGradient>
        <linearGradient x1="71.6751321%" y1="50%" x2="-76.09228%" y2="84.117272%" id="linearGradient-3">
            <stop stop-color="#178041" offset="0%"></stop>
            <stop stop-color="#32A15F" offset="100%"></stop>
        </linearGradient>
        <polygon id="path-4" points="13.3466667 1.2195122 19.4133333 1.2195122 18.4022222 12.195122 13.3466667 12.195122"></polygon>
        <polygon id="path-5" points="13.3466667 1.2195122 19.4133333 1.2195122 18.4022222 12.195122 13.3466667 12.195122"></polygon>
        <polygon id="path-6" points="13.3466667 1.2195122 19.4133333 1.2195122 18.4022222 12.195122 13.3466667 12.195122"></polygon>
        <polygon id="path-7" points="13.3466667 1.2195122 19.4133333 1.2195122 18.4022222 12.195122 13.3466667 12.195122"></polygon>
        <polygon id="path-8" points="13.3466667 1.2195122 19.4133333 1.2195122 18.4022222 12.195122 13.3466667 12.195122"></polygon>
        <polygon id="path-9" points="13.3466667 1.2195122 19.4133333 1.2195122 18.4022222 12.195122 13.3466667 12.195122"></polygon>
        <polygon id="path-10" points="13.3466667 1.2195122 19.4133333 1.2195122 18.4022222 12.195122 13.3466667 12.195122"></polygon>
        <polygon id="path-11" points="13.3466667 1.2195122 19.4133333 1.2195122 18.4022222 12.195122 13.3466667 12.195122"></polygon>
        <polygon id="path-12" points="13.3466667 1.2195122 19.4133333 1.2195122 18.4022222 12.195122 13.3466667 12.195122"></polygon>
        <polygon id="path-13" points="13.3466667 1.2195122 19.4133333 1.2195122 18.4022222 12.195122 13.3466667 12.195122"></polygon>
        <linearGradient x1="50%" y1="0%" x2="50%" y2="100%" id="linearGradient-14">
            <stop stop-color="#3B383B" offset="0%"></stop>
            <stop stop-color="#3B383B" offset="100%"></stop>
        </linearGradient>
        <rect id="path-15" x="0" y="25" width="230" height="15"></rect>
        <filter x="-3.0%" y="-33.3%" width="106.1%" height="193.3%" filterUnits="objectBoundingBox" id="filter-16">
            <feOffset dx="0" dy="2" in="SourceAlpha" result="shadowOffsetOuter1"></feOffset>
            <feGaussianBlur stdDeviation="2" in="shadowOffsetOuter1" result="shadowBlurOuter1"></feGaussianBlur>
            <feComposite in="shadowBlurOuter1" in2="SourceAlpha" operator="out" result="shadowBlurOuter1"></feComposite>
            <feColorMatrix values="0 0 0 0 0   0 0 0 0 0   0 0 0 0 0  0 0 0 0.5 0" type="matrix" in="shadowBlurOuter1"></feColorMatrix>
        </filter>
    </defs>
    <g id="Graveyard" stroke="none" stroke-width="1" fill="none" fill-rule="evenodd">
        <g id="peach-shelf">
            <g id="Group" transform="translate(5.000000, 20.000000)">
                <g id="Peach" transform="translate(136.000000, 19.000000) scale(-1, 1) rotate(3.000000) translate(-136.000000, -19.000000) translate(122.000000, 3.000000)">
                    <g id="Rectangle" transform="translate(16.380000, 6.707317) rotate(8.000000) translate(-16.380000, -6.707317) ">
                        <use fill="#8B572A" fill-rule="evenodd" xlink:href="#path-1"></use>
                        <path stroke="#111111" stroke-width="1.5" d="M14.0966667,1.9695122 L14.0966667,11.445122 L17.718139,11.445122 L18.5910649,1.9695122 L14.0966667,1.9695122 Z"></path>
                    </g>
                    <ellipse id="Oval-15" stroke="#111111" stroke-width="2" fill="url(#linearGradient-2)" cx="15.7733333" cy="20.1219512" rx="12.1333333" ry="11.5853659"></ellipse>
                    <path d="M9.70666667,15.6504065 C12.8338256,15.6504065 15.6649368,14.4647696 18.2,12.0934959 C15.6649368,9.72222222 12.8338256,8.53658537 9.70666667,8.53658537 C6.57950768,8.53658537 3.74839657,9.72222222 1.21333333,12.0934959 C3.74839657,14.4647696 6.57950768,15.6504065 9.70666667,15.6504065 Z" id="Oval-16" stroke="#000000" stroke-width="1.5" fill="url(#linearGradient-3)" transform="translate(9.706667, 12.093496) rotate(-32.000000) translate(-9.706667, -12.093496) "></path>
                </g>
                <g id="Peach" transform="translate(115.000000, 19.000000) scale(-1, 1) rotate(3.000000) translate(-115.000000, -19.000000) translate(101.000000, 3.000000)">
                    <g id="Rectangle" transform="translate(16.380000, 6.707317) rotate(8.000000) translate(-16.380000, -6.707317) ">
                        <use fill="#8B572A" fill-rule="evenodd" xlink:href="#path-4"></use>
                        <path stroke="#111111" stroke-width="1.5" d="M14.0966667,1.9695122 L14.0966667,11.445122 L17.718139,11.445122 L18.5910649,1.9695122 L14.0966667,1.9695122 Z"></path>
                    </g>
                    <ellipse id="Oval-15" stroke="#111111" stroke-width="2" fill="url(#linearGradient-2)" cx="15.7733333" cy="20.1219512" rx="12.1333333" ry="11.5853659"></ellipse>
                    <path d="M9.70666667,15.6504065 C12.8338256,15.6504065 15.6649368,14.4647696 18.2,12.0934959 C15.6649368,9.72222222 12.8338256,8.53658537 9.70666667,8.53658537 C6.57950768,8.53658537 3.74839657,9.72222222 1.21333333,12.0934959 C3.74839657,14.4647696 6.57950768,15.6504065 9.70666667,15.6504065 Z" id="Oval-16" stroke="#000000" stroke-width="1.5" fill="url(#linearGradient-3)" transform="translate(9.706667, 12.093496) rotate(-32.000000) translate(-9.706667, -12.093496) "></path>
                </g>
                <g id="Peach" transform="translate(80.000000, 19.000000) scale(-1, 1) rotate(-2.000000) translate(-80.000000, -19.000000) translate(66.000000, 3.000000)">
                    <g id="Rectangle" transform="translate(16.380000, 6.707317) rotate(8.000000) translate(-16.380000, -6.707317) ">
                        <use fill="#8B572A" fill-rule="evenodd" xlink:href="#path-5"></use>
                        <path stroke="#111111" stroke-width="1.5" d="M14.0966667,1.9695122 L14.0966667,11.445122 L17.718139,11.445122 L18.5910649,1.9695122 L14.0966667,1.9695122 Z"></path>
                    </g>
                    <ellipse id="Oval-15" stroke="#111111" stroke-width="2" fill="url(#linearGradient-2)" cx="15.7733333" cy="20.1219512" rx="12.1333333" ry="11.5853659"></ellipse>
                    <path d="M9.70666667,15.6504065 C12.8338256,15.6504065 15.6649368,14.4647696 18.2,12.0934959 C15.6649368,9.72222222 12.8338256,8.53658537 9.70666667,8.53658537 C6.57950768,8.53658537 3.74839657,9.72222222 1.21333333,12.0934959 C3.74839657,14.4647696 6.57950768,15.6504065 9.70666667,15.6504065 Z" id="Oval-16" stroke="#000000" stroke-width="1.5" fill="url(#linearGradient-3)" transform="translate(9.706667, 12.093496) rotate(-32.000000) translate(-9.706667, -12.093496) "></path>
                </g>
                <g id="Peach" transform="translate(58.000000, 19.000000) scale(-1, 1) rotate(3.000000) translate(-58.000000, -19.000000) translate(44.000000, 3.000000)">
                    <g id="Rectangle" transform="translate(16.380000, 6.707317) rotate(8.000000) translate(-16.380000, -6.707317) ">
                        <use fill="#8B572A" fill-rule="evenodd" xlink:href="#path-6"></use>
                        <path stroke="#111111" stroke-width="1.5" d="M14.0966667,1.9695122 L14.0966667,11.445122 L17.718139,11.445122 L18.5910649,1.9695122 L14.0966667,1.9695122 Z"></path>
                    </g>
                    <ellipse id="Oval-15" stroke="#111111" stroke-width="2" fill="url(#linearGradient-2)" cx="15.7733333" cy="20.1219512" rx="12.1333333" ry="11.5853659"></ellipse>
                    <path d="M9.70666667,15.6504065 C12.8338256,15.6504065 15.6649368,14.4647696 18.2,12.0934959 C15.6649368,9.72222222 12.8338256,8.53658537 9.70666667,8.53658537 C6.57950768,8.53658537 3.74839657,9.72222222 1.21333333,12.0934959 C3.74839657,14.4647696 6.57950768,15.6504065 9.70666667,15.6504065 Z" id="Oval-16" stroke="#000000" stroke-width="1.5" fill="url(#linearGradient-3)" transform="translate(9.706667, 12.093496) rotate(-32.000000) translate(-9.706667, -12.093496) "></path>
                </g>
                <g id="Peach" transform="translate(41.000000, 19.000000) scale(-1, 1) rotate(-13.000000) translate(-41.000000, -19.000000) translate(27.000000, 3.000000)">
                    <g id="Rectangle" transform="translate(16.380000, 6.707317) rotate(8.000000) translate(-16.380000, -6.707317) ">
                        <use fill="#8B572A" fill-rule="evenodd" xlink:href="#path-7"></use>
                        <path stroke="#111111" stroke-width="1.5" d="M14.0966667,1.9695122 L14.0966667,11.445122 L17.718139,11.445122 L18.5910649,1.9695122 L14.0966667,1.9695122 Z"></path>
                    </g>
                    <ellipse id="Oval-15" stroke="#111111" stroke-width="2" fill="url(#linearGradient-2)" cx="15.7733333" cy="20.1219512" rx="12.1333333" ry="11.5853659"></ellipse>
                    <path d="M9.70666667,15.6504065 C12.8338256,15.6504065 15.6649368,14.4647696 18.2,12.0934959 C15.6649368,9.72222222 12.8338256,8.53658537 9.70666667,8.53658537 C6.57950768,8.53658537 3.74839657,9.72222222 1.21333333,12.0934959 C3.74839657,14.4647696 6.57950768,15.6504065 9.70666667,15.6504065 Z" id="Oval-16" stroke="#000000" stroke-width="1.5" fill="url(#linearGradient-3)" transform="translate(9.706667, 12.093496) rotate(-32.000000) translate(-9.706667, -12.093496) "></path>
                </g>
                <g id="Peach" transform="translate(18.818189, 18.710776) scale(-1, 1) rotate(3.000000) translate(-18.818189, -18.710776) translate(4.818189, 2.710776)">
                    <g id="Rectangle" transform="translate(16.380000, 6.707317) rotate(8.000000) translate(-16.380000, -6.707317) ">
                        <use fill="#8B572A" fill-rule="evenodd" xlink:href="#path-8"></use>
                        <path stroke="#111111" stroke-width="1.5" d="M14.0966667,1.9695122 L14.0966667,11.445122 L17.718139,11.445122 L18.5910649,1.9695122 L14.0966667,1.9695122 Z"></path>
                    </g>
                    <ellipse id="Oval-15" stroke="#111111" stroke-width="2" fill="url(#linearGradient-2)" cx="15.7733333" cy="20.1219512" rx="12.1333333" ry="11.5853659"></ellipse>
                    <path d="M9.70666667,15.6504065 C12.8338256,15.6504065 15.6649368,14.4647696 18.2,12.0934959 C15.6649368,9.72222222 12.8338256,8.53658537 9.70666667,8.53658537 C6.57950768,8.53658537 3.74839657,9.72222222 1.21333333,12.0934959 C3.74839657,14.4647696 6.57950768,15.6504065 9.70666667,15.6504065 Z" id="Oval-16" stroke="#000000" stroke-width="1.5" fill="url(#linearGradient-3)" transform="translate(9.706667, 12.093496) rotate(-32.000000) translate(-9.706667, -12.093496) "></path>
                </g>
                <g id="Peach" transform="translate(97.000000, 19.000000) scale(-1, 1) rotate(2.000000) translate(-97.000000, -19.000000) translate(83.000000, 3.000000)">
                    <g id="Rectangle" transform="translate(16.380000, 6.707317) rotate(8.000000) translate(-16.380000, -6.707317) ">
                        <use fill="#8B572A" fill-rule="evenodd" xlink:href="#path-9"></use>
                        <path stroke="#111111" stroke-width="1.5" d="M14.0966667,1.9695122 L14.0966667,11.445122 L17.718139,11.445122 L18.5910649,1.9695122 L14.0966667,1.9695122 Z"></path>
                    </g>
                    <ellipse id="Oval-15" stroke="#111111" stroke-width="2" fill="url(#linearGradient-2)" cx="15.7733333" cy="20.1219512" rx="12.1333333" ry="11.5853659"></ellipse>
                    <path d="M9.70666667,15.6504065 C12.8338256,15.6504065 15.6649368,14.4647696 18.2,12.0934959 C15.6649368,9.72222222 12.8338256,8.53658537 9.70666667,8.53658537 C6.57950768,8.53658537 3.74839657,9.72222222 1.21333333,12.0934959 C3.74839657,14.4647696 6.57950768,15.6504065 9.70666667,15.6504065 Z" id="Oval-16" stroke="#000000" stroke-width="1.5" fill="url(#linearGradient-3)" transform="translate(9.706667, 12.093496) rotate(-32.000000) translate(-9.706667, -12.093496) "></path>
                </g>
                <g id="Peach" transform="translate(172.000000, 19.000000) scale(-1, 1) rotate(3.000000) translate(-172.000000, -19.000000) translate(158.000000, 3.000000)">
                    <g id="Rectangle" transform="translate(16.380000, 6.707317) rotate(8.000000) translate(-16.380000, -6.707317) ">
                        <use fill="#8B572A" fill-rule="evenodd" xlink:href="#path-10"></use>
                        <path stroke="#111111" stroke-width="1.5" d="M14.0966667,1.9695122 L14.0966667,11.445122 L17.718139,11.445122 L18.5910649,1.9695122 L14.0966667,1.9695122 Z"></path>
                    </g>
                    <ellipse id="Oval-15" stroke="#111111" stroke-width="2" fill="url(#linearGradient-2)" cx="15.7733333" cy="20.1219512" rx="12.1333333" ry="11.5853659"></ellipse>
                    <path d="M9.70666667,15.6504065 C12.8338256,15.6504065 15.6649368,14.4647696 18.2,12.0934959 C15.6649368,9.72222222 12.8338256,8.53658537 9.70666667,8.53658537 C6.57950768,8.53658537 3.74839657,9.72222222 1.21333333,12.0934959 C3.74839657,14.4647696 6.57950768,15.6504065 9.70666667,15.6504065 Z" id="Oval-16" stroke="#000000" stroke-width="1.5" fill="url(#linearGradient-3)" transform="translate(9.706667, 12.093496) rotate(-32.000000) translate(-9.706667, -12.093496) "></path>
                </g>
                <g id="Peach" transform="translate(191.000000, 19.000000) scale(-1, 1) rotate(3.000000) translate(-191.000000, -19.000000) translate(177.000000, 3.000000)">
                    <g id="Rectangle" transform="translate(16.380000, 6.707317) rotate(8.000000) translate(-16.380000, -6.707317) ">
                        <use fill="#8B572A" fill-rule="evenodd" xlink:href="#path-11"></use>
                        <path stroke="#111111" stroke-width="1.5" d="M14.0966667,1.9695122 L14.0966667,11.445122 L17.718139,11.445122 L18.5910649,1.9695122 L14.0966667,1.9695122 Z"></path>
                    </g>
                    <ellipse id="Oval-15" stroke="#111111" stroke-width="2" fill="url(#linearGradient-2)" cx="15.7733333" cy="20.1219512" rx="12.1333333" ry="11.5853659"></ellipse>
                    <path d="M9.70666667,15.6504065 C12.8338256,15.6504065 15.6649368,14.4647696 18.2,12.0934959 C15.6649368,9.72222222 12.8338256,8.53658537 9.70666667,8.53658537 C6.57950768,8.53658537 3.74839657,9.72222222 1.21333333,12.0934959 C3.74839657,14.4647696 6.57950768,15.6504065 9.70666667,15.6504065 Z" id="Oval-16" stroke="#000000" stroke-width="1.5" fill="url(#linearGradient-3)" transform="translate(9.706667, 12.093496) rotate(-32.000000) translate(-9.706667, -12.093496) "></path>
                </g>
                <g id="Peach" transform="translate(213.000000, 19.000000) scale(-1, 1) rotate(4.000000) translate(-213.000000, -19.000000) translate(199.000000, 3.000000)">
                    <g id="Rectangle" transform="translate(16.380000, 6.707317) rotate(8.000000) translate(-16.380000, -6.707317) ">
                        <use fill="#8B572A" fill-rule="evenodd" xlink:href="#path-12"></use>
                        <path stroke="#111111" stroke-width="1.5" d="M14.0966667,1.9695122 L14.0966667,11.445122 L17.718139,11.445122 L18.5910649,1.9695122 L14.0966667,1.9695122 Z"></path>
                    </g>
                    <ellipse id="Oval-15" stroke="#111111" stroke-width="2" fill="url(#linearGradient-2)" cx="15.7733333" cy="20.1219512" rx="12.1333333" ry="11.5853659"></ellipse>
                    <path d="M9.70666667,15.6504065 C12.8338256,15.6504065 15.6649368,14.4647696 18.2,12.0934959 C15.6649368,9.72222222 12.8338256,8.53658537 9.70666667,8.53658537 C6.57950768,8.53658537 3.74839657,9.72222222 1.21333333,12.0934959 C3.74839657,14.4647696 6.57950768,15.6504065 9.70666667,15.6504065 Z" id="Oval-16" stroke="#000000" stroke-width="1.5" fill="url(#linearGradient-3)" transform="translate(9.706667, 12.093496) rotate(-32.000000) translate(-9.706667, -12.093496) "></path>
                </g>
                <g id="Peach" transform="translate(154.000000, 19.000000) scale(-1, 1) rotate(-13.000000) translate(-154.000000, -19.000000) translate(140.000000, 3.000000)">
                    <g id="Rectangle" transform="translate(16.380000, 6.707317) rotate(8.000000) translate(-16.380000, -6.707317) ">
                        <use fill="#8B572A" fill-rule="evenodd" xlink:href="#path-13"></use>
                        <path stroke="#111111" stroke-width="1.5" d="M14.0966667,1.9695122 L14.0966667,11.445122 L17.718139,11.445122 L18.5910649,1.9695122 L14.0966667,1.9695122 Z"></path>
                    </g>
                    <ellipse id="Oval-15" stroke="#111111" stroke-width="2" fill="url(#linearGradient-2)" cx="15.7733333" cy="20.1219512" rx="12.1333333" ry="11.5853659"></ellipse>
                    <path d="M9.70666667,15.6504065 C12.8338256,15.6504065 15.6649368,14.4647696 18.2,12.0934959 C15.6649368,9.72222222 12.8338256,8.53658537 9.70666667,8.53658537 C6.57950768,8.53658537 3.74839657,9.72222222 1.21333333,12.0934959 C3.74839657,14.4647696 6.57950768,15.6504065 9.70666667,15.6504065 Z" id="Oval-16" stroke="#000000" stroke-width="1.5" fill="url(#linearGradient-3)" transform="translate(9.706667, 12.093496) rotate(-32.000000) translate(-9.706667, -12.093496) "></path>
                </g>
                <g id="Rectangle-2">
                    <use fill="black" fill-opacity="1" filter="url(#filter-16)" xlink:href="#path-15"></use>
                    <use fill="url(#linearGradient-14)" fill-rule="evenodd" xlink:href="#path-15"></use>
                    <rect stroke="#111111" stroke-width="2" x="1" y="26" width="228" height="13"></rect>
                </g>
            </g>
        </g>
    </g>
</svg>