<?xml version="1.0" encoding="UTF-8"?>
<svg width="20px" height="21px" viewBox="0 0 20 21" version="1.1" xmlns="http://www.w3.org/2000/svg" xmlns:xlink="http://www.w3.org/1999/xlink">
    <!-- Generator: Sketch 45.2 (43514) - http://www.bohemiancoding.com/sketch -->
    <title>rose</title>
    <desc>Created with Sketch.</desc>
    <defs>
        <linearGradient x1="120.743919%" y1="12.6590381%" x2="-36.7008417%" y2="100%" id="linearGradient-1">
            <stop stop-color="#F3CA7C" offset="0%"></stop>
            <stop stop-color="#E2A767" offset="100%"></stop>
        </linearGradient>
    </defs>
    <g id="Page-1" stroke="none" stroke-width="1" fill="none" fill-rule="evenodd">
        <g id="test-to-know" transform="translate(-100.000000, 0.000000)" fill-rule="nonzero">
            <g id="Group" transform="translate(201.000000, 59.000000) scale(-1, 1) translate(-201.000000, -59.000000) translate(40.000000, 0.000000)">
                <g id="rose" transform="translate(242.000000, 0.000000)">
                    <path d="M18.386998,10.2426866 C18.5065474,9.97109644 18.6271255,9.70083513 18.7369018,9.45479231 C19.3652111,8.04681873 19.3622534,8.03473091 19.3262472,7.88693377 C18.8417914,5.89878779 16.7944495,4.96579687 16.2779739,4.75948954 C16.0059122,4.11823509 15.4971951,3.39318035 14.5477442,2.84567079 C12.9802286,1.94174206 12.3745517,0.590006833 12.3688936,0.577147452 C12.3256432,0.477144336 12.2346846,0.405817638 12.127223,0.387728776 C12.0925027,0.38189919 11.2655159,0.246447048 10.2944612,0.426306918 C9.44779959,0.583191361 8.75407887,0.931894899 8.23957505,1.45167106 C7.68713606,1.00605066 6.93649115,0.842436474 6.40269826,0.783926293 C5.87289178,0.725844757 5.35230119,0.750706226 5.2267079,0.79331364 C5.12186109,0.828934125 5.03900381,0.918135361 5.01354224,1.02593984 C4.93647168,1.35201086 4.69642991,1.71901759 4.46427523,2.07397936 C4.09722564,2.63503413 3.71864547,3.2141349 3.80111697,3.83421424 C2.49769015,4.52210537 1.11616403,5.82090281 0.909385186,6.01846576 C0.872178711,6.05400052 0.844059532,6.09793673 0.827385202,6.14658806 C0.816540458,6.17809354 0.561110294,6.9298958 0.430501852,7.93112717 C0.252056514,9.29970818 0.390209126,10.4268329 0.841144739,11.2810815 C0.85456136,11.3065431 0.869049595,11.3309759 0.883023456,11.3558803 C0.470708849,12.1104259 0.630036575,12.7983599 0.770889657,13.4056655 C0.880623038,13.8787193 0.975353808,14.287219 0.820784054,14.697176 C0.785549351,14.790878 0.796522689,14.897268 0.849460472,14.9821827 C0.964680523,15.1668435 2.46472727,16.2384585 4.04373062,16.4025013 C4.07017807,16.5093628 4.10412684,16.6173816 4.1486203,16.7258719 C4.50795426,17.6014671 5.3790487,18.2996458 6.73777085,18.801033 C7.4330347,19.0575776 7.9243059,19.3010486 8.35770989,19.5158002 C8.89437471,19.7816894 9.35778392,20.0113579 9.96543252,20.1301786 C10.1349192,20.1633129 10.3076206,20.1797301 10.4825511,20.1797301 C11.3068802,20.1797301 12.1798607,19.8155953 12.990216,19.124275 C13.1525443,18.9857794 13.3848276,18.8501987 13.6306989,18.706688 C14.4753459,18.2137022 15.6267748,17.5403851 15.5611063,15.8201428 C15.7089463,15.7386572 15.8539144,15.6511706 15.9952818,15.5546395 C16.0159426,15.5759432 16.0396895,15.5948465 16.06678,15.6103206 C16.1951595,15.6835334 16.3228531,15.7163248 16.4499467,15.7163248 C17.0175597,15.7163248 17.5725277,15.0614823 18.1123645,14.4244714 C18.5170921,13.946874 18.9758291,13.4055798 19.3489654,13.2564539 C19.4445963,13.2181758 19.6097108,13.1102427 19.6401018,12.8170917 C19.7024698,12.2174588 19.1606184,10.8561647 18.386998,10.2426866 Z" id="Shape" fill="url(#linearGradient-1)"></path>
                    <path d="M18.6768071,10.251796 C18.8004878,9.9708204 18.9252328,9.69121951 19.0388027,9.43667406 C19.6888248,7.98004435 19.685765,7.9675388 19.6485144,7.81463415 C19.1473171,5.75778271 17.0292239,4.79254989 16.4949002,4.57911308 C16.2134368,3.91569845 15.6871397,3.16558758 14.704878,2.59915743 C13.0831929,1.66399113 12.4565854,0.265543237 12.4507317,0.252239468 C12.4059867,0.148780488 12.3118847,0.0749889135 12.2007095,0.0562749446 C12.1647894,0.0502439024 11.3092239,-0.0898891353 10.304612,0.0961862528 C9.4286918,0.258492239 8.71099778,0.61924612 8.17871397,1.15698448 C7.60718404,0.695964523 6.83059867,0.526696231 6.2783592,0.46616408 C5.7302439,0.406075388 5.19166297,0.431796009 5.06172949,0.475875831 C4.95325942,0.512727273 4.8675388,0.605011086 4.84119734,0.71654102 C4.76146341,1.05388027 4.51312639,1.43356984 4.272949,1.80079823 C3.89321508,2.38124169 3.50155211,2.98035477 3.58687361,3.62186253 C2.23840355,4.3335255 0.809135255,5.67720621 0.595210643,5.88159645 C0.556718404,5.9183592 0.527627494,5.96381375 0.51037694,6.01414634 C0.499157428,6.04674058 0.234900222,6.82452328 0.0997782705,7.86035477 C-0.0848337029,9.2762306 0.0580931264,10.442306 0.524611973,11.3260754 C0.538492239,11.3524169 0.553481153,11.377694 0.567937916,11.403459 C0.141374723,12.1840798 0.306208426,12.8957871 0.451929047,13.5240798 C0.565454545,14.0134812 0.66345898,14.4360976 0.503547672,14.8602217 C0.467095344,14.9571619 0.478447894,15.0672284 0.533215078,15.1550776 C0.652416851,15.3461197 2.20430155,16.4547672 3.8378714,16.6244789 C3.86523282,16.7350333 3.90035477,16.8467849 3.94638581,16.9590244 C4.31813747,17.864878 5.21933481,18.587184 6.62501109,19.105898 C7.34430155,19.3713082 7.85254989,19.6231929 8.30093126,19.8453659 C8.85614191,20.1204435 9.33556541,20.3580488 9.96421286,20.4809756 C10.1395565,20.515255 10.3182262,20.5322395 10.4992018,20.5322395 C11.3520177,20.5322395 12.2551663,20.1555211 13.0935255,19.4403104 C13.2614634,19.2970288 13.5017738,19.1567627 13.7561419,19.0082927 C14.6299778,18.4982705 15.8211973,17.8016851 15.7532594,16.0219956 C15.9062084,15.937694 16.0561863,15.847184 16.202439,15.7473171 C16.2238137,15.769357 16.2483814,15.7889135 16.276408,15.8049224 C16.4092239,15.8806652 16.5413304,15.9145898 16.672816,15.9145898 C17.2600443,15.9145898 17.8341907,15.2371175 18.3926829,14.5780931 C18.8113969,14.0839911 19.2859867,13.5239911 19.6720177,13.3697118 C19.7709534,13.3301109 19.9417738,13.2184479 19.9732151,12.9151663 C20.0377384,12.2948115 19.4771619,10.8864745 18.6768071,10.251796 Z M18.9822173,7.89454545 C18.9112639,8.09015521 18.6577827,8.65831486 18.4313525,9.16558758 C18.0940133,9.92159645 17.7997783,10.5867849 17.5915299,11.0996896 C17.5550333,10.986031 17.5174279,10.871663 17.4795122,10.7565854 C17.2942794,10.1940133 17.1027494,9.61228381 17.0285588,9.03560976 C16.9586253,8.49192905 16.8099335,8.02372506 16.5853659,7.63317073 C16.8332151,6.98412417 16.8924169,6.18527716 16.7515743,5.43339246 C17.4714856,5.81308204 18.6304213,6.60478936 18.9822173,7.89454545 L18.9822173,7.89454545 Z M14.6631486,15.8209313 C13.9889135,16.1379157 13.2247007,16.4972062 12.4484257,17.1787583 C11.4470953,18.0578271 10.1793348,17.7561419 9.35343681,17.0798226 C9.57640798,16.9179601 9.78625277,16.7220399 9.97977827,16.4934368 C10.7596452,16.395388 11.5590687,16.1156984 12.3124612,15.6638581 C13.6825277,14.842306 14.7273171,13.5482927 15.1790244,12.1137029 C15.7617295,10.2629712 15.141153,8.23525499 14.1603548,6.94292683 C14.5091353,6.95135255 15.0268293,7.02900222 15.4737916,7.35818182 C15.9637251,7.71902439 16.264878,8.31192905 16.3688692,9.1204878 C16.4510865,9.76013304 16.6527273,10.3724612 16.8477605,10.9646563 C17.1499778,11.8825721 17.4355211,12.7495787 17.1553437,13.4570288 C16.5750776,14.9220399 15.7313525,15.3186696 14.6631486,15.8209313 L14.6631486,15.8209313 Z M4.07685144,13.9248337 C3.79339246,13.3094013 3.44088692,12.9039468 3.12988914,12.5462528 C2.70172949,12.0537916 2.36350333,11.6647894 2.2535255,10.8502882 C1.99884701,8.9637694 3.18545455,7.14279379 4.43113082,6.38722838 C4.77405765,6.17924612 5.09720621,6.06838137 5.36399113,6.05911308 C4.63955654,6.86749446 3.83343681,8.20301552 3.85995565,9.51405765 C3.87592018,10.3037251 4.1913082,10.9543237 4.7972949,11.4478492 C4.95716186,11.5780488 5.12239468,11.6925942 5.29192905,11.7917517 C5.10230599,12.3789357 5.18966741,13.2453215 5.53303769,14.0393792 C5.82230599,14.7084257 6.54824834,15.9006652 8.15960089,16.3678492 C8.42909091,16.4459867 8.70926829,16.4955654 8.9962306,16.5184479 C8.5204878,16.8769401 7.97809313,17.0276275 7.39818182,16.9570288 C6.14026608,16.8039468 4.86762749,15.6420399 4.07685144,13.9248337 Z M5.82944568,3.2664745 C6.36492239,2.8610643 7.47197339,2.3037694 8.86944568,3.1259867 C9.88110865,3.72124169 10.8619069,3.94718404 11.6499335,4.1286918 C12.7348559,4.37858093 13.3113525,4.53977827 13.5334368,5.20097561 C13.6814634,5.64186253 13.3907317,5.93184035 13.2550333,6.03849224 C12.5686918,5.54266075 11.8335698,5.39503326 11.1824834,5.63166297 C10.8472284,5.32279379 10.4481596,5.07583149 9.99419069,4.90261641 C8.63614191,4.3843459 7.07676275,4.62119734 5.95392461,5.49933481 C5.54035477,5.32412417 5.02044346,5.36585366 4.4627051,5.61884701 C4.48944568,4.80501109 5.13578714,3.79157428 5.82944568,3.2664745 L5.82944568,3.2664745 Z M8.3448337,15.7290466 C6.99534368,15.3377384 6.38643016,14.3370732 6.14354767,13.7754324 C5.85423503,13.1062971 5.80651885,12.4631042 5.90230599,12.074102 C6.0491796,12.1253215 6.1983592,12.1658537 6.34940133,12.195388 C6.69911308,13.0642572 7.59654102,13.7631486 8.63547672,13.9588914 C8.83800443,13.9970732 9.04031042,14.0158758 9.24119734,14.0158758 C10.2980931,14.0158758 11.3144568,13.4951663 12.0980931,12.532949 C13.0050554,11.4192905 13.844878,9.88926829 12.3295344,7.89849224 C12.2394678,7.25405765 12.0149002,6.67707317 11.6745898,6.19339246 C12.284745,6.11929047 12.8462084,6.53064302 13.1509534,6.81157428 C14.2938359,7.86532151 15.1275831,10.0619069 14.5445233,11.9138803 C14.1409756,13.1954324 13.2027494,14.3543237 11.9703326,15.0933481 C10.7652772,15.8160532 9.44381375,16.0476275 8.3448337,15.7290466 Z M6.21286031,6.14798226 C7.14700665,5.32226164 8.57135255,5.07161863 9.75707317,5.52407982 C10.2313969,5.70509978 10.9620399,6.11556541 11.3827051,6.99995565 C10.8533925,6.64496674 10.2416851,6.42341463 9.60456763,6.36718404 C8.76501109,6.29325942 7.97498891,6.52629712 7.43645233,7.00696231 C6.45880266,7.87955654 6.10053215,8.95201774 6.45348115,9.94931264 C6.70345898,10.6557428 7.29445676,11.2202661 7.94301552,11.4138359 C7.27241685,11.6566741 6.25090909,11.7738359 5.21733925,10.9321951 C4.7697561,10.5677162 4.5368071,10.0860754 4.52501109,9.50075388 C4.50709534,8.61445676 5.09254989,7.13827051 6.21286031,6.14798226 L6.21286031,6.14798226 Z M8.57197339,10.894235 C8.37392461,10.7329933 8.25059867,10.5042572 8.22461197,10.2502439 C8.19862528,9.9962306 8.27312639,9.74722838 8.43436807,9.54922395 C8.59560976,9.35121951 8.8243459,9.22784922 9.0783592,9.20186253 C9.11148559,9.19844789 9.14452328,9.1968071 9.17742794,9.1968071 C9.39645233,9.1968071 9.60713969,9.27144124 9.77933481,9.41166297 C10.1881153,9.74456763 10.2498004,10.3479379 9.91694013,10.7567184 C9.7556541,10.9547228 9.52696231,11.0780931 9.272949,11.1040798 C9.01906874,11.1300665 8.76993348,11.0554767 8.57197339,10.894235 L8.57197339,10.894235 Z M9.17268293,11.7743681 C9.22838137,11.7743681 9.28447894,11.7715299 9.34066519,11.765765 C9.77148559,11.7216851 10.1593348,11.5125055 10.4327716,11.1767184 C10.9972506,10.4835477 10.8925942,9.46035477 10.1994678,8.89583149 C9.86368071,8.62239468 9.44141907,8.49596452 9.01068736,8.54013304 C8.57986696,8.58421286 8.19201774,8.79339246 7.91858093,9.1291796 C7.64509978,9.46496674 7.51875831,9.88713969 7.56283814,10.3179601 C7.56793792,10.3678936 7.57552106,10.4172062 7.58501109,10.465898 C7.36456763,10.272816 7.18235033,10.0149889 7.0805765,9.72736142 C6.81849224,8.98678492 7.10217295,8.19689579 7.8794235,7.50314856 C8.28146341,7.14430155 8.88878049,6.97179601 9.54607539,7.0297561 C10.4037694,7.10549889 11.207184,7.54527716 11.7502439,8.23640798 C12.9685144,9.78665188 12.5641685,10.9072727 11.5823503,12.1129047 C10.5230599,13.4136142 9.35871397,13.4182705 8.75871397,13.3052328 C8.06629712,13.1747672 7.45742794,12.7721951 7.12385809,12.251663 C7.22758315,12.2467406 7.33175166,12.2373836 7.43627494,12.2225721 C7.76815965,12.1756541 8.27600887,12.0525942 8.81818182,11.7348559 C8.93370288,11.7608869 9.05241685,11.7743681 9.17268293,11.7743681 L9.17268293,11.7743681 Z M10.4075831,0.753702882 C11.0575166,0.63059867 11.6500222,0.664257206 11.9262971,0.692017738 C12.1604435,1.13627494 12.8888692,2.31982262 14.3725942,3.17538803 C15.4698004,3.8081153 15.8919734,4.70549889 16.0529047,5.34691796 C16.205898,5.95685144 16.1796896,6.5421286 16.0802217,6.99764967 C16.012816,6.93578714 15.9423947,6.87716186 15.8682483,6.82257206 C15.1723282,6.30997783 14.3676275,6.26235033 13.9420843,6.28079823 C14.1761863,5.97609756 14.3455876,5.52997783 14.1639468,4.98922395 C13.8130377,3.94439024 12.8798226,3.72944568 11.7992461,3.48053215 C11.0168958,3.30031042 10.1301552,3.09605322 9.20678492,2.55272727 C8.87419069,2.35702882 8.55476718,2.22514412 8.25073171,2.14252772 C8.68767184,1.40913525 9.41117517,0.942394678 10.4075831,0.753702882 L10.4075831,0.753702882 Z M4.82966741,2.16496674 C5.05472284,1.82088692 5.28611973,1.46713969 5.4194235,1.09955654 C5.88407982,1.07831486 7.06935698,1.11738359 7.76013304,1.67383592 C7.68492239,1.78807095 7.61569845,1.90758315 7.55303769,2.03259424 C6.60727273,1.99268293 5.86532151,2.40518847 5.42802661,2.73614191 C5.25121951,2.86997783 5.08487805,3.02031042 4.93104213,3.18252772 C4.72017738,3.19042129 4.49046563,3.24226164 4.25037694,3.3264745 C4.30039911,2.97512195 4.55866962,2.57924612 4.82966741,2.16496674 Z M1.11529933,6.30572062 C1.30186253,6.13215078 1.89773836,5.5886918 2.60505543,5.05618625 C3.36465632,4.48430155 3.91609756,4.17569845 4.30962306,4.01356984 C3.92412417,4.6762306 3.73228381,5.40004435 3.82226164,5.9924612 C2.46944568,6.95374723 1.31649667,8.88177384 1.59427938,10.9393348 C1.64487805,11.314235 1.7394235,11.6220843 1.86075388,11.8870953 C1.55033259,11.6626608 1.30257206,11.3743237 1.11370288,11.0170288 C0.234146341,9.35299335 0.968203991,6.77862528 1.11529933,6.30572062 Z M1.10004435,13.3738803 C0.98940133,12.8967627 0.89113082,12.4723282 1.02266075,12.0299335 C1.4324612,12.4688692 1.96350333,12.781153 2.60984479,12.9619069 C2.61587583,12.9688248 2.62190687,12.9757871 2.62789357,12.9827051 C2.92341463,13.3226164 3.22904656,13.6740576 3.47263858,14.2031042 C3.62133038,14.5259867 3.78745011,14.8329933 3.96771619,15.1215965 C3.96323725,15.1294457 3.95884701,15.1373392 3.95494457,15.1456319 C3.85756098,15.3532594 3.78292683,15.6313969 3.76926829,15.9461641 C2.63751663,15.7873171 1.58789357,15.1393792 1.1983592,14.8596896 C1.32337029,14.3369401 1.21006652,13.8483814 1.10004435,13.3738803 Z M13.42102,18.4338803 C13.1402661,18.5977384 12.8750333,18.7525499 12.6619956,18.9343237 C11.8031929,19.666918 10.8905987,19.9844789 10.0920177,19.8282483 C9.55104213,19.7224834 9.1297561,19.5137472 8.59640798,19.2494457 C8.13312639,19.019867 7.60798226,18.7596452 6.85543237,18.4819512 C5.64886918,18.0367184 4.85578714,17.4228381 4.56190687,16.7066075 C4.41658537,16.3524612 4.41374723,16.0361419 4.44895787,15.8046563 C4.67414634,16.087184 4.91467849,16.3430155 5.16722838,16.5672727 C5.84031042,17.1649667 6.58390244,17.528071 7.31773836,17.6174279 C7.43645233,17.6318847 7.55427938,17.6390244 7.67095344,17.6390244 C8.04186253,17.6390244 8.40128603,17.5664745 8.7405765,17.4254989 C8.74470067,17.4298004 8.7486031,17.434235 8.75299335,17.4383592 C9.27427938,17.9254545 9.95831486,18.2606208 10.6296674,18.3578271 C10.7720621,18.3784479 10.9127273,18.3886918 11.0516186,18.3886918 C11.7255876,18.3886918 12.3536142,18.147184 12.8872727,17.6786696 C13.5928603,17.0592018 14.2808426,16.7357428 14.9461641,16.4229268 C14.9926386,16.4010643 15.03898,16.3792461 15.0852328,16.3573836 C15.0049667,17.5092239 14.2009756,17.9786253 13.42102,18.4338803 L13.42102,18.4338803 Z M17.8853659,14.148071 C17.5865632,14.5007095 17.1770288,14.9840798 16.8807982,15.1686475 C17.2187583,14.8055876 17.5216851,14.3382705 17.7736585,13.7019512 C17.9635033,13.2227051 17.9701552,12.7310865 17.8856763,12.2256763 C17.9090909,12.1916186 17.9270953,12.1531264 17.9366741,12.1102882 C17.9849224,11.8943237 18.1712195,11.4260754 18.3991574,10.8913969 C18.9584479,11.4369401 19.3180488,12.4724169 19.3159202,12.8011086 C18.8167627,13.0490466 18.3437694,13.6071397 17.8853659,14.148071 L17.8853659,14.148071 Z" id="Shape" fill="#202C45"></path>
                </g>
            </g>
        </g>
    </g>
</svg>