<?xml version="1.0" encoding="UTF-8"?>
<svg width="20px" height="20px" viewBox="0 0 20 20" version="1.1" xmlns="http://www.w3.org/2000/svg" xmlns:xlink="http://www.w3.org/1999/xlink">
    <!-- Generator: Sketch 46.2 (44496) - http://www.bohemiancoding.com/sketch -->
    <title>switch</title>
    <desc>Created with Sketch.</desc>
    <defs></defs>
    <g id="Page-1" stroke="none" stroke-width="1" fill="none" fill-rule="evenodd">
        <g id="switch">
            <circle id="Oval" stroke="#2A3C19" cx="10" cy="10" r="9.5"></circle>
            <path d="M12.8564453,7.34863281 C12.9394531,7.43164062 12.9394531,7.56835938 12.8564453,7.65136719 L10.9814453,9.52636719 C10.9277344,9.58496094 10.8349609,9.59472656 10.7519531,9.5703125 C10.6689453,9.53613281 10.625,9.45800781 10.625,9.375 L10.625,8.33496094 L8.33496094,8.33496094 C7.40722656,8.33496094 6.66503906,9.08691406 6.66503906,10 C6.66503906,10.3955078 6.80664062,10.7519531 7.02636719,11.0302734 C7.08496094,11.1132812 7.08496094,11.2255859 7.01171875,11.3085938 L6.11328125,12.1972656 C6.07421875,12.2460938 6.02050781,12.2558594 5.97167969,12.2558594 C5.91308594,12.2558594 5.85449219,12.2314453 5.8203125,12.1875 C5.3125,11.5966797 5,10.8349609 5,10 C5,8.15917969 6.49414062,6.66503906 8.33496094,6.66503906 L10.625,6.66503906 L10.625,5.625 C10.625,5.54199219 10.6689453,5.46386719 10.7519531,5.4296875 C10.8349609,5.40527344 10.9277344,5.41503906 10.9814453,5.47363281 L12.8564453,7.34863281 Z M7.14355469,12.6513672 C7.06054688,12.5683594 7.06054688,12.4316406 7.14355469,12.3486328 L9.01855469,10.4736328 C9.07226562,10.4150391 9.16503906,10.4052734 9.24804688,10.4296875 C9.33105469,10.4638672 9.375,10.5419922 9.375,10.625 L9.375,11.6650391 L11.6650391,11.6650391 C12.5830078,11.6650391 13.3349609,10.9277344 13.3349609,10 C13.3349609,9.60449219 13.1933594,9.24804688 12.9736328,8.96972656 C12.9052734,8.88671875 12.9150391,8.77441406 12.9882812,8.70605469 L13.8867188,7.80273438 C13.9257812,7.75390625 13.9794922,7.74414062 14.0283203,7.74414062 C14.0869141,7.74414062 14.1455078,7.76855469 14.1796875,7.8125 C14.6875,8.40332031 15,9.16503906 15,10 C15,11.8408203 13.5058594,13.3349609 11.6650391,13.3349609 L9.375,13.3349609 L9.375,14.375 C9.375,14.4580078 9.33105469,14.5361328 9.24804688,14.5703125 C9.16503906,14.5947266 9.07226562,14.5849609 9.01855469,14.5263672 L7.14355469,12.6513672 Z" id="ðŸ”" fill="#2A3C19"></path>
        </g>
    </g>
</svg>