<?xml version="1.0" encoding="UTF-8"?>
<svg width="260px" height="112px" viewBox="0 0 260 112" version="1.1" xmlns="http://www.w3.org/2000/svg" xmlns:xlink="http://www.w3.org/1999/xlink">
    <!-- Generator: Sketch 46.1 (44463) - http://www.bohemiancoding.com/sketch -->
    <title>to-stay</title>
    <desc>Created with Sketch.</desc>
    <defs>
        <path d="M13.1038319,0.509876727 L245.365716,9.54730411 L245.365716,9.54730411 C250.884387,9.76203841 255.184078,14.409882 254.969343,19.9285534 C254.949693,20.4335605 254.891788,20.9363514 254.796124,21.4326042 L242.490883,85.2660434 L242.490883,85.2660434 C241.616312,89.8028796 237.74747,93.1498862 233.132004,93.3625804 L32.3113483,102.616989 L32.3113483,102.616989 C27.4949886,102.838941 23.2060381,99.5925801 22.1118983,94.8968968 L2.97591196,12.7716221 L2.97591196,12.7716221 C1.72260832,7.39286072 5.06695265,2.01650972 10.4457141,0.763206085 C11.3164449,0.560317339 12.2104519,0.475114862 13.1038319,0.509876727 Z" id="path-1"></path>
        <linearGradient x1="55.8986446%" y1="430.807034%" x2="46.9842264%" y2="50%" id="linearGradient-2">
            <stop stop-color="#F8E1B7" offset="0%"></stop>
            <stop stop-color="#FFFFFF" offset="100%"></stop>
        </linearGradient>
        <path d="M32.9977755,22.2577036 L227.690232,30.5203893 L227.690232,30.5203893 C229.345596,30.5906424 230.630582,31.9895316 230.560329,33.6448958 C230.554609,33.779681 230.539804,33.9139268 230.516014,34.0467192 L224.224536,69.165185 L224.224536,69.165185 C223.977693,70.5430366 222.810787,71.5670531 221.412546,71.6328419 L44.1394753,79.9737302 L44.1394753,79.9737302 C42.6742983,80.0426684 41.3741094,79.0420358 41.0655901,77.6080512 L29.937683,25.8860113 L29.937683,25.8860113 C29.5891882,24.266222 30.619776,22.6706124 32.2395652,22.3221176 C32.4885434,22.2685504 32.7433292,22.2469049 32.9977755,22.2577036 Z" id="path-3"></path>
        <linearGradient x1="50%" y1="50%" x2="76.0264521%" y2="92.9655656%" id="linearGradient-4">
            <stop stop-color="#F3CA7C" offset="0%"></stop>
            <stop stop-color="#E2A767" offset="100%"></stop>
        </linearGradient>
    </defs>
    <g id="Page-1" stroke="none" stroke-width="1" fill="none" fill-rule="evenodd">
        <g id="to-stay">
            <g id="Group" transform="translate(2.000000, 5.000000)">
                <g id="Rectangle">
                    <use fill="#F8F8F8" fill-rule="evenodd" xlink:href="#path-1"></use>
                    <path stroke="#111111" stroke-width="2" d="M13.0649508,1.50912057 C12.2609089,1.47783489 11.4563026,1.55451712 10.6726448,1.73711699 C5.83175949,2.86509026 2.8218496,7.70380617 3.94982287,12.5446914 L23.0858092,94.6699661 C24.070535,98.8960811 27.9305905,101.817806 32.2653142,101.618049 L233.08597,92.3636406 C237.239889,92.1722157 240.721847,89.1599098 241.508961,85.0767572 L253.814203,21.243318 C253.900299,20.7966905 253.952414,20.3441787 253.970099,19.8896723 C254.16336,14.9228681 250.293639,10.7398088 245.326835,10.546548 L13.0649508,1.50912057 Z"></path>
                </g>
                <g id="Rectangle">
                    <use fill-opacity="0.4" fill="url(#linearGradient-2)" fill-rule="evenodd" xlink:href="#path-3"></use>
                    <path stroke="#111111" stroke-width="2" d="M32.955374,23.2568042 C32.7857431,23.2496051 32.6158859,23.2640354 32.4499005,23.2997469 C31.370041,23.5320768 30.6829825,24.5958165 30.9153124,25.675676 L42.0432194,77.3977159 C42.2488989,78.3537057 43.1156915,79.0207941 44.0924762,78.9748353 L221.365547,70.6339469 C222.297708,70.5900878 223.075645,69.9074101 223.240207,68.9888424 L229.531685,33.8703765 C229.547545,33.7818483 229.557415,33.6923511 229.561229,33.6024943 C229.608064,32.4989182 228.751406,31.5663254 227.64783,31.5194899 L32.955374,23.2568042 Z"></path>
                </g>
                <g id="Bulbs" transform="translate(9.000000, 7.000000)" stroke="#000000" stroke-width="2" fill="url(#linearGradient-4)">
                    <circle id="Oval-14" cx="6" cy="6" r="6"></circle>
                    <circle id="Oval-14" cx="25" cy="83" r="6"></circle>
                    <circle id="Oval-14" cx="63.5" cy="82.5" r="5.5"></circle>
                    <circle id="Oval-14" cx="83.5" cy="81.5" r="5.5"></circle>
                    <circle id="Oval-14" cx="103.5" cy="80.5" r="5.5"></circle>
                    <circle id="Oval-14" cx="44.5" cy="82.5" r="5.5"></circle>
                    <circle id="Oval-14" cx="163.5" cy="77.5" r="5.5"></circle>
                    <circle id="Oval-14" cx="183.5" cy="76.5" r="5.5"></circle>
                    <circle id="Oval-14" cx="203.5" cy="75.5" r="5.5"></circle>
                    <circle id="Oval-14" cx="143.5" cy="78.5" r="5.5"></circle>
                    <circle id="Oval-14" cx="16" cy="44" r="6"></circle>
                    <circle id="Oval-14" cx="11" cy="25" r="6"></circle>
                    <circle id="Oval-14" cx="20" cy="63" r="6"></circle>
                    <circle id="Oval-14" cx="123.5" cy="79.5" r="5.5"></circle>
                    <circle id="Oval-14" cx="119.5" cy="9.5" r="5.5"></circle>
                    <circle id="Oval-14" cx="143.5" cy="10.5" r="5.5"></circle>
                    <circle id="Oval-14" cx="166.5" cy="11.5" r="5.5"></circle>
                    <circle id="Oval-14" cx="190.5" cy="12.5" r="5.5"></circle>
                    <circle id="Oval-14" cx="213.5" cy="13.5" r="5.5"></circle>
                    <circle id="Oval-14" cx="27.5" cy="5.5" r="5.5"></circle>
                    <circle id="Oval-14" cx="50.5" cy="6.5" r="5.5"></circle>
                    <circle id="Oval-14" cx="74.5" cy="7.5" r="5.5"></circle>
                    <circle id="Oval-14" cx="97.5" cy="8.5" r="5.5"></circle>
                    <circle id="Oval-14" cx="232.5" cy="15.5" r="5.5"></circle>
                    <circle id="Oval-14" cx="221.5" cy="74.5" r="5.5"></circle>
                    <circle id="Oval-14" cx="225.5" cy="55.5" r="5.5"></circle>
                    <circle id="Oval-14" cx="229.5" cy="35.5" r="5.5"></circle>
                </g>
            </g>
        </g>
    </g>
</svg>