<?xml version="1.0" encoding="UTF-8"?>
<svg width="240px" height="75px" viewBox="0 0 240 75" version="1.1" xmlns="http://www.w3.org/2000/svg" xmlns:xlink="http://www.w3.org/1999/xlink">
    <!-- Generator: Sketch 46.1 (44463) - http://www.bohemiancoding.com/sketch -->
    <title>tomato-shelf</title>
    <desc>Created with Sketch.</desc>
    <defs>
        <linearGradient x1="40.6639204%" y1="57.6231941%" x2="133.005708%" y2="150.150894%" id="linearGradient-1">
            <stop stop-color="#DF0543" offset="0%"></stop>
            <stop stop-color="#B31945" offset="100%"></stop>
        </linearGradient>
        <linearGradient x1="29.4565291%" y1="100%" x2="61.804349%" y2="-9.83280864%" id="linearGradient-2">
            <stop stop-color="#178041" offset="0%"></stop>
            <stop stop-color="#32A15F" offset="100%"></stop>
        </linearGradient>
        <linearGradient x1="50%" y1="0%" x2="50%" y2="100%" id="linearGradient-3">
            <stop stop-color="#3B383B" offset="0%"></stop>
            <stop stop-color="#3B383B" offset="100%"></stop>
        </linearGradient>
        <rect id="path-4" x="5" y="45" width="230" height="15"></rect>
        <filter x="-3.0%" y="-33.3%" width="106.1%" height="193.3%" filterUnits="objectBoundingBox" id="filter-5">
            <feOffset dx="0" dy="2" in="SourceAlpha" result="shadowOffsetOuter1"></feOffset>
            <feGaussianBlur stdDeviation="2" in="shadowOffsetOuter1" result="shadowBlurOuter1"></feGaussianBlur>
            <feComposite in="shadowBlurOuter1" in2="SourceAlpha" operator="out" result="shadowBlurOuter1"></feComposite>
            <feColorMatrix values="0 0 0 0 0   0 0 0 0 0   0 0 0 0 0  0 0 0 0.5 0" type="matrix" in="shadowBlurOuter1"></feColorMatrix>
        </filter>
    </defs>
    <g id="Graveyard" stroke="none" stroke-width="1" fill="none" fill-rule="evenodd">
        <g id="tomato-shelf">
            <g id="Group" transform="translate(5.000000, 45.000000)"></g>
            <g id="Tomato" transform="translate(8.000000, 31.000000)">
                <path d="M14.4251658,7.50197984 C14.4251658,7.50197984 11.9020849,4.79270558 7.38042352,4.88011947 C2.85876219,4.96753335 -2.01059863,8.2886121 0.858890606,18.5139973 C3.72828762,28.7394752 17.2062084,28.8267964 22.9451869,24.1947875 C28.6841654,19.5627785 28.2494026,13.4334244 26.6842015,9.98701847 C25.1190927,6.54061249 21.2959661,4.0935799 14.4251658,7.50197984" id="Fill-7" stroke="#111111" stroke-width="2" fill="url(#linearGradient-1)"></path>
                <g id="Group-3" transform="translate(8.493333, 0.000000)"></g>
                <g id="Group-5" transform="translate(9.659664, 0.336143)">
                    <path d="M5.94951407,0.00202338341 C4.04377309,-0.0850679792 4.15051434,2.66101745 4.25635766,4.04376205 C4.25635766,4.04376205 1.29330587,1.81007166 0.235097138,3.19281626 C-0.823111592,4.57556086 2.03409688,5.42639383 2.03409688,5.42639383 C2.03409688,5.42639383 0.34094046,5.00097734 0.764201503,6.70275611 C1.18746255,8.40453487 4.25635766,6.70275611 4.25635766,6.70275611 C4.25635766,6.70275611 3.83668833,8.40453487 4.8931012,8.82995136 C5.94951407,9.25548066 7.0077228,6.59637378 7.0077228,6.59637378 C7.0077228,6.59637378 9.65335687,8.19177022 10.3941479,7.02179027 C11.1348266,5.85181032 8.17177486,5.42639383 8.17177486,5.42639383 C8.17177486,5.42639383 10.0766179,5.21362918 9.23009583,3.8309974 C8.3834615,2.4482528 6.7961484,4.43905756 6.7961484,4.43905756 C6.7961484,4.43905756 8.27761818,0.108292896 5.94951407,0.00202338341" id="Fill-8" stroke="#000000" stroke-width="3"></path>
                    <path d="M5.94951407,0.00202338341 C4.04377309,-0.0850679792 4.15051434,2.66101745 4.25635766,4.04376205 C4.25635766,4.04376205 1.29330587,1.81007166 0.235097138,3.19281626 C-0.823111592,4.57556086 2.03409688,5.42639383 2.03409688,5.42639383 C2.03409688,5.42639383 0.34094046,5.00097734 0.764201503,6.70275611 C1.18746255,8.40453487 4.25635766,6.70275611 4.25635766,6.70275611 C4.25635766,6.70275611 3.83668833,8.40453487 4.8931012,8.82995136 C5.94951407,9.25548066 7.0077228,6.59637378 7.0077228,6.59637378 C7.0077228,6.59637378 9.65335687,8.19177022 10.3941479,7.02179027 C11.1348266,5.85181032 8.17177486,5.42639383 8.17177486,5.42639383 C8.17177486,5.42639383 10.0766179,5.21362918 9.23009583,3.8309974 C8.3834615,2.4482528 6.7961484,4.43905756 6.7961484,4.43905756 C6.7961484,4.43905756 8.27761818,0.108292896 5.94951407,0.00202338341" id="Fill-8" fill="url(#linearGradient-2)"></path>
                </g>
            </g>
            <g id="Tomato" transform="translate(44.000000, 45.000000) rotate(-10.000000) translate(-44.000000, -45.000000) translate(30.000000, 31.000000)">
                <path d="M14.4251658,7.50197984 C14.4251658,7.50197984 11.9020849,4.79270558 7.38042352,4.88011947 C2.85876219,4.96753335 -2.01059863,8.2886121 0.858890606,18.5139973 C3.72828762,28.7394752 17.2062084,28.8267964 22.9451869,24.1947875 C28.6841654,19.5627785 28.2494026,13.4334244 26.6842015,9.98701847 C25.1190927,6.54061249 21.2959661,4.0935799 14.4251658,7.50197984" id="Fill-7" stroke="#111111" stroke-width="2" fill="url(#linearGradient-1)"></path>
                <g id="Group-3" transform="translate(8.493333, 0.000000)"></g>
                <g id="Group-5" transform="translate(9.659664, 0.336143)">
                    <path d="M5.94951407,0.00202338341 C4.04377309,-0.0850679792 4.15051434,2.66101745 4.25635766,4.04376205 C4.25635766,4.04376205 1.29330587,1.81007166 0.235097138,3.19281626 C-0.823111592,4.57556086 2.03409688,5.42639383 2.03409688,5.42639383 C2.03409688,5.42639383 0.34094046,5.00097734 0.764201503,6.70275611 C1.18746255,8.40453487 4.25635766,6.70275611 4.25635766,6.70275611 C4.25635766,6.70275611 3.83668833,8.40453487 4.8931012,8.82995136 C5.94951407,9.25548066 7.0077228,6.59637378 7.0077228,6.59637378 C7.0077228,6.59637378 9.65335687,8.19177022 10.3941479,7.02179027 C11.1348266,5.85181032 8.17177486,5.42639383 8.17177486,5.42639383 C8.17177486,5.42639383 10.0766179,5.21362918 9.23009583,3.8309974 C8.3834615,2.4482528 6.7961484,4.43905756 6.7961484,4.43905756 C6.7961484,4.43905756 8.27761818,0.108292896 5.94951407,0.00202338341" id="Fill-8" stroke="#000000" stroke-width="3"></path>
                    <path d="M5.94951407,0.00202338341 C4.04377309,-0.0850679792 4.15051434,2.66101745 4.25635766,4.04376205 C4.25635766,4.04376205 1.29330587,1.81007166 0.235097138,3.19281626 C-0.823111592,4.57556086 2.03409688,5.42639383 2.03409688,5.42639383 C2.03409688,5.42639383 0.34094046,5.00097734 0.764201503,6.70275611 C1.18746255,8.40453487 4.25635766,6.70275611 4.25635766,6.70275611 C4.25635766,6.70275611 3.83668833,8.40453487 4.8931012,8.82995136 C5.94951407,9.25548066 7.0077228,6.59637378 7.0077228,6.59637378 C7.0077228,6.59637378 9.65335687,8.19177022 10.3941479,7.02179027 C11.1348266,5.85181032 8.17177486,5.42639383 8.17177486,5.42639383 C8.17177486,5.42639383 10.0766179,5.21362918 9.23009583,3.8309974 C8.3834615,2.4482528 6.7961484,4.43905756 6.7961484,4.43905756 C6.7961484,4.43905756 8.27761818,0.108292896 5.94951407,0.00202338341" id="Fill-8" fill="url(#linearGradient-2)"></path>
                </g>
            </g>
            <g id="Tomato" transform="translate(205.000000, 31.000000)">
                <path d="M14.4251658,7.50197984 C14.4251658,7.50197984 11.9020849,4.79270558 7.38042352,4.88011947 C2.85876219,4.96753335 -2.01059863,8.2886121 0.858890606,18.5139973 C3.72828762,28.7394752 17.2062084,28.8267964 22.9451869,24.1947875 C28.6841654,19.5627785 28.2494026,13.4334244 26.6842015,9.98701847 C25.1190927,6.54061249 21.2959661,4.0935799 14.4251658,7.50197984" id="Fill-7" stroke="#111111" stroke-width="2" fill="url(#linearGradient-1)"></path>
                <g id="Group-3" transform="translate(8.493333, 0.000000)"></g>
                <g id="Group-5" transform="translate(9.659664, 0.336143)">
                    <path d="M5.94951407,0.00202338341 C4.04377309,-0.0850679792 4.15051434,2.66101745 4.25635766,4.04376205 C4.25635766,4.04376205 1.29330587,1.81007166 0.235097138,3.19281626 C-0.823111592,4.57556086 2.03409688,5.42639383 2.03409688,5.42639383 C2.03409688,5.42639383 0.34094046,5.00097734 0.764201503,6.70275611 C1.18746255,8.40453487 4.25635766,6.70275611 4.25635766,6.70275611 C4.25635766,6.70275611 3.83668833,8.40453487 4.8931012,8.82995136 C5.94951407,9.25548066 7.0077228,6.59637378 7.0077228,6.59637378 C7.0077228,6.59637378 9.65335687,8.19177022 10.3941479,7.02179027 C11.1348266,5.85181032 8.17177486,5.42639383 8.17177486,5.42639383 C8.17177486,5.42639383 10.0766179,5.21362918 9.23009583,3.8309974 C8.3834615,2.4482528 6.7961484,4.43905756 6.7961484,4.43905756 C6.7961484,4.43905756 8.27761818,0.108292896 5.94951407,0.00202338341" id="Fill-8" stroke="#000000" stroke-width="3"></path>
                    <path d="M5.94951407,0.00202338341 C4.04377309,-0.0850679792 4.15051434,2.66101745 4.25635766,4.04376205 C4.25635766,4.04376205 1.29330587,1.81007166 0.235097138,3.19281626 C-0.823111592,4.57556086 2.03409688,5.42639383 2.03409688,5.42639383 C2.03409688,5.42639383 0.34094046,5.00097734 0.764201503,6.70275611 C1.18746255,8.40453487 4.25635766,6.70275611 4.25635766,6.70275611 C4.25635766,6.70275611 3.83668833,8.40453487 4.8931012,8.82995136 C5.94951407,9.25548066 7.0077228,6.59637378 7.0077228,6.59637378 C7.0077228,6.59637378 9.65335687,8.19177022 10.3941479,7.02179027 C11.1348266,5.85181032 8.17177486,5.42639383 8.17177486,5.42639383 C8.17177486,5.42639383 10.0766179,5.21362918 9.23009583,3.8309974 C8.3834615,2.4482528 6.7961484,4.43905756 6.7961484,4.43905756 C6.7961484,4.43905756 8.27761818,0.108292896 5.94951407,0.00202338341" id="Fill-8" fill="url(#linearGradient-2)"></path>
                </g>
            </g>
            <g id="Tomato" transform="translate(66.000000, 45.000000) rotate(-8.000000) translate(-66.000000, -45.000000) translate(52.000000, 31.000000)">
                <path d="M14.4251658,7.50197984 C14.4251658,7.50197984 11.9020849,4.79270558 7.38042352,4.88011947 C2.85876219,4.96753335 -2.01059863,8.2886121 0.858890606,18.5139973 C3.72828762,28.7394752 17.2062084,28.8267964 22.9451869,24.1947875 C28.6841654,19.5627785 28.2494026,13.4334244 26.6842015,9.98701847 C25.1190927,6.54061249 21.2959661,4.0935799 14.4251658,7.50197984" id="Fill-7" stroke="#111111" stroke-width="2" fill="url(#linearGradient-1)"></path>
                <g id="Group-3" transform="translate(8.493333, 0.000000)"></g>
                <g id="Group-5" transform="translate(9.659664, 0.336143)">
                    <path d="M5.94951407,0.00202338341 C4.04377309,-0.0850679792 4.15051434,2.66101745 4.25635766,4.04376205 C4.25635766,4.04376205 1.29330587,1.81007166 0.235097138,3.19281626 C-0.823111592,4.57556086 2.03409688,5.42639383 2.03409688,5.42639383 C2.03409688,5.42639383 0.34094046,5.00097734 0.764201503,6.70275611 C1.18746255,8.40453487 4.25635766,6.70275611 4.25635766,6.70275611 C4.25635766,6.70275611 3.83668833,8.40453487 4.8931012,8.82995136 C5.94951407,9.25548066 7.0077228,6.59637378 7.0077228,6.59637378 C7.0077228,6.59637378 9.65335687,8.19177022 10.3941479,7.02179027 C11.1348266,5.85181032 8.17177486,5.42639383 8.17177486,5.42639383 C8.17177486,5.42639383 10.0766179,5.21362918 9.23009583,3.8309974 C8.3834615,2.4482528 6.7961484,4.43905756 6.7961484,4.43905756 C6.7961484,4.43905756 8.27761818,0.108292896 5.94951407,0.00202338341" id="Fill-8" stroke="#000000" stroke-width="3"></path>
                    <path d="M5.94951407,0.00202338341 C4.04377309,-0.0850679792 4.15051434,2.66101745 4.25635766,4.04376205 C4.25635766,4.04376205 1.29330587,1.81007166 0.235097138,3.19281626 C-0.823111592,4.57556086 2.03409688,5.42639383 2.03409688,5.42639383 C2.03409688,5.42639383 0.34094046,5.00097734 0.764201503,6.70275611 C1.18746255,8.40453487 4.25635766,6.70275611 4.25635766,6.70275611 C4.25635766,6.70275611 3.83668833,8.40453487 4.8931012,8.82995136 C5.94951407,9.25548066 7.0077228,6.59637378 7.0077228,6.59637378 C7.0077228,6.59637378 9.65335687,8.19177022 10.3941479,7.02179027 C11.1348266,5.85181032 8.17177486,5.42639383 8.17177486,5.42639383 C8.17177486,5.42639383 10.0766179,5.21362918 9.23009583,3.8309974 C8.3834615,2.4482528 6.7961484,4.43905756 6.7961484,4.43905756 C6.7961484,4.43905756 8.27761818,0.108292896 5.94951407,0.00202338341" id="Fill-8" fill="url(#linearGradient-2)"></path>
                </g>
            </g>
            <g id="Tomato" transform="translate(94.000000, 45.000000) rotate(-6.000000) translate(-94.000000, -45.000000) translate(80.000000, 31.000000)">
                <path d="M14.4251658,7.50197984 C14.4251658,7.50197984 11.9020849,4.79270558 7.38042352,4.88011947 C2.85876219,4.96753335 -2.01059863,8.2886121 0.858890606,18.5139973 C3.72828762,28.7394752 17.2062084,28.8267964 22.9451869,24.1947875 C28.6841654,19.5627785 28.2494026,13.4334244 26.6842015,9.98701847 C25.1190927,6.54061249 21.2959661,4.0935799 14.4251658,7.50197984" id="Fill-7" stroke="#111111" stroke-width="2" fill="url(#linearGradient-1)"></path>
                <g id="Group-3" transform="translate(8.493333, 0.000000)"></g>
                <g id="Group-5" transform="translate(9.659664, 0.336143)">
                    <path d="M5.94951407,0.00202338341 C4.04377309,-0.0850679792 4.15051434,2.66101745 4.25635766,4.04376205 C4.25635766,4.04376205 1.29330587,1.81007166 0.235097138,3.19281626 C-0.823111592,4.57556086 2.03409688,5.42639383 2.03409688,5.42639383 C2.03409688,5.42639383 0.34094046,5.00097734 0.764201503,6.70275611 C1.18746255,8.40453487 4.25635766,6.70275611 4.25635766,6.70275611 C4.25635766,6.70275611 3.83668833,8.40453487 4.8931012,8.82995136 C5.94951407,9.25548066 7.0077228,6.59637378 7.0077228,6.59637378 C7.0077228,6.59637378 9.65335687,8.19177022 10.3941479,7.02179027 C11.1348266,5.85181032 8.17177486,5.42639383 8.17177486,5.42639383 C8.17177486,5.42639383 10.0766179,5.21362918 9.23009583,3.8309974 C8.3834615,2.4482528 6.7961484,4.43905756 6.7961484,4.43905756 C6.7961484,4.43905756 8.27761818,0.108292896 5.94951407,0.00202338341" id="Fill-8" stroke="#000000" stroke-width="3"></path>
                    <path d="M5.94951407,0.00202338341 C4.04377309,-0.0850679792 4.15051434,2.66101745 4.25635766,4.04376205 C4.25635766,4.04376205 1.29330587,1.81007166 0.235097138,3.19281626 C-0.823111592,4.57556086 2.03409688,5.42639383 2.03409688,5.42639383 C2.03409688,5.42639383 0.34094046,5.00097734 0.764201503,6.70275611 C1.18746255,8.40453487 4.25635766,6.70275611 4.25635766,6.70275611 C4.25635766,6.70275611 3.83668833,8.40453487 4.8931012,8.82995136 C5.94951407,9.25548066 7.0077228,6.59637378 7.0077228,6.59637378 C7.0077228,6.59637378 9.65335687,8.19177022 10.3941479,7.02179027 C11.1348266,5.85181032 8.17177486,5.42639383 8.17177486,5.42639383 C8.17177486,5.42639383 10.0766179,5.21362918 9.23009583,3.8309974 C8.3834615,2.4482528 6.7961484,4.43905756 6.7961484,4.43905756 C6.7961484,4.43905756 8.27761818,0.108292896 5.94951407,0.00202338341" id="Fill-8" fill="url(#linearGradient-2)"></path>
                </g>
            </g>
            <g id="Tomato" transform="translate(103.000000, 31.000000)">
                <path d="M14.4251658,7.50197984 C14.4251658,7.50197984 11.9020849,4.79270558 7.38042352,4.88011947 C2.85876219,4.96753335 -2.01059863,8.2886121 0.858890606,18.5139973 C3.72828762,28.7394752 17.2062084,28.8267964 22.9451869,24.1947875 C28.6841654,19.5627785 28.2494026,13.4334244 26.6842015,9.98701847 C25.1190927,6.54061249 21.2959661,4.0935799 14.4251658,7.50197984" id="Fill-7" stroke="#111111" stroke-width="2" fill="url(#linearGradient-1)"></path>
                <g id="Group-3" transform="translate(8.493333, 0.000000)"></g>
                <g id="Group-5" transform="translate(9.659664, 0.336143)">
                    <path d="M5.94951407,0.00202338341 C4.04377309,-0.0850679792 4.15051434,2.66101745 4.25635766,4.04376205 C4.25635766,4.04376205 1.29330587,1.81007166 0.235097138,3.19281626 C-0.823111592,4.57556086 2.03409688,5.42639383 2.03409688,5.42639383 C2.03409688,5.42639383 0.34094046,5.00097734 0.764201503,6.70275611 C1.18746255,8.40453487 4.25635766,6.70275611 4.25635766,6.70275611 C4.25635766,6.70275611 3.83668833,8.40453487 4.8931012,8.82995136 C5.94951407,9.25548066 7.0077228,6.59637378 7.0077228,6.59637378 C7.0077228,6.59637378 9.65335687,8.19177022 10.3941479,7.02179027 C11.1348266,5.85181032 8.17177486,5.42639383 8.17177486,5.42639383 C8.17177486,5.42639383 10.0766179,5.21362918 9.23009583,3.8309974 C8.3834615,2.4482528 6.7961484,4.43905756 6.7961484,4.43905756 C6.7961484,4.43905756 8.27761818,0.108292896 5.94951407,0.00202338341" id="Fill-8" stroke="#000000" stroke-width="3"></path>
                    <path d="M5.94951407,0.00202338341 C4.04377309,-0.0850679792 4.15051434,2.66101745 4.25635766,4.04376205 C4.25635766,4.04376205 1.29330587,1.81007166 0.235097138,3.19281626 C-0.823111592,4.57556086 2.03409688,5.42639383 2.03409688,5.42639383 C2.03409688,5.42639383 0.34094046,5.00097734 0.764201503,6.70275611 C1.18746255,8.40453487 4.25635766,6.70275611 4.25635766,6.70275611 C4.25635766,6.70275611 3.83668833,8.40453487 4.8931012,8.82995136 C5.94951407,9.25548066 7.0077228,6.59637378 7.0077228,6.59637378 C7.0077228,6.59637378 9.65335687,8.19177022 10.3941479,7.02179027 C11.1348266,5.85181032 8.17177486,5.42639383 8.17177486,5.42639383 C8.17177486,5.42639383 10.0766179,5.21362918 9.23009583,3.8309974 C8.3834615,2.4482528 6.7961484,4.43905756 6.7961484,4.43905756 C6.7961484,4.43905756 8.27761818,0.108292896 5.94951407,0.00202338341" id="Fill-8" fill="url(#linearGradient-2)"></path>
                </g>
            </g>
            <g id="Tomato" transform="translate(145.000000, 45.000000) rotate(-10.000000) translate(-145.000000, -45.000000) translate(131.000000, 31.000000)">
                <path d="M14.4251658,7.50197984 C14.4251658,7.50197984 11.9020849,4.79270558 7.38042352,4.88011947 C2.85876219,4.96753335 -2.01059863,8.2886121 0.858890606,18.5139973 C3.72828762,28.7394752 17.2062084,28.8267964 22.9451869,24.1947875 C28.6841654,19.5627785 28.2494026,13.4334244 26.6842015,9.98701847 C25.1190927,6.54061249 21.2959661,4.0935799 14.4251658,7.50197984" id="Fill-7" stroke="#111111" stroke-width="2" fill="url(#linearGradient-1)"></path>
                <g id="Group-3" transform="translate(8.493333, 0.000000)"></g>
                <g id="Group-5" transform="translate(9.659664, 0.336143)">
                    <path d="M5.94951407,0.00202338341 C4.04377309,-0.0850679792 4.15051434,2.66101745 4.25635766,4.04376205 C4.25635766,4.04376205 1.29330587,1.81007166 0.235097138,3.19281626 C-0.823111592,4.57556086 2.03409688,5.42639383 2.03409688,5.42639383 C2.03409688,5.42639383 0.34094046,5.00097734 0.764201503,6.70275611 C1.18746255,8.40453487 4.25635766,6.70275611 4.25635766,6.70275611 C4.25635766,6.70275611 3.83668833,8.40453487 4.8931012,8.82995136 C5.94951407,9.25548066 7.0077228,6.59637378 7.0077228,6.59637378 C7.0077228,6.59637378 9.65335687,8.19177022 10.3941479,7.02179027 C11.1348266,5.85181032 8.17177486,5.42639383 8.17177486,5.42639383 C8.17177486,5.42639383 10.0766179,5.21362918 9.23009583,3.8309974 C8.3834615,2.4482528 6.7961484,4.43905756 6.7961484,4.43905756 C6.7961484,4.43905756 8.27761818,0.108292896 5.94951407,0.00202338341" id="Fill-8" stroke="#000000" stroke-width="3"></path>
                    <path d="M5.94951407,0.00202338341 C4.04377309,-0.0850679792 4.15051434,2.66101745 4.25635766,4.04376205 C4.25635766,4.04376205 1.29330587,1.81007166 0.235097138,3.19281626 C-0.823111592,4.57556086 2.03409688,5.42639383 2.03409688,5.42639383 C2.03409688,5.42639383 0.34094046,5.00097734 0.764201503,6.70275611 C1.18746255,8.40453487 4.25635766,6.70275611 4.25635766,6.70275611 C4.25635766,6.70275611 3.83668833,8.40453487 4.8931012,8.82995136 C5.94951407,9.25548066 7.0077228,6.59637378 7.0077228,6.59637378 C7.0077228,6.59637378 9.65335687,8.19177022 10.3941479,7.02179027 C11.1348266,5.85181032 8.17177486,5.42639383 8.17177486,5.42639383 C8.17177486,5.42639383 10.0766179,5.21362918 9.23009583,3.8309974 C8.3834615,2.4482528 6.7961484,4.43905756 6.7961484,4.43905756 C6.7961484,4.43905756 8.27761818,0.108292896 5.94951407,0.00202338341" id="Fill-8" fill="url(#linearGradient-2)"></path>
                </g>
            </g>
            <g id="Tomato" transform="translate(117.000000, 45.000000) rotate(4.000000) translate(-117.000000, -45.000000) translate(103.000000, 31.000000)">
                <path d="M14.4251658,7.50197984 C14.4251658,7.50197984 11.9020849,4.79270558 7.38042352,4.88011947 C2.85876219,4.96753335 -2.01059863,8.2886121 0.858890606,18.5139973 C3.72828762,28.7394752 17.2062084,28.8267964 22.9451869,24.1947875 C28.6841654,19.5627785 28.2494026,13.4334244 26.6842015,9.98701847 C25.1190927,6.54061249 21.2959661,4.0935799 14.4251658,7.50197984" id="Fill-7" stroke="#111111" stroke-width="2" fill="url(#linearGradient-1)"></path>
                <g id="Group-3" transform="translate(8.493333, 0.000000)"></g>
                <g id="Group-5" transform="translate(9.659664, 0.336143)">
                    <path d="M5.94951407,0.00202338341 C4.04377309,-0.0850679792 4.15051434,2.66101745 4.25635766,4.04376205 C4.25635766,4.04376205 1.29330587,1.81007166 0.235097138,3.19281626 C-0.823111592,4.57556086 2.03409688,5.42639383 2.03409688,5.42639383 C2.03409688,5.42639383 0.34094046,5.00097734 0.764201503,6.70275611 C1.18746255,8.40453487 4.25635766,6.70275611 4.25635766,6.70275611 C4.25635766,6.70275611 3.83668833,8.40453487 4.8931012,8.82995136 C5.94951407,9.25548066 7.0077228,6.59637378 7.0077228,6.59637378 C7.0077228,6.59637378 9.65335687,8.19177022 10.3941479,7.02179027 C11.1348266,5.85181032 8.17177486,5.42639383 8.17177486,5.42639383 C8.17177486,5.42639383 10.0766179,5.21362918 9.23009583,3.8309974 C8.3834615,2.4482528 6.7961484,4.43905756 6.7961484,4.43905756 C6.7961484,4.43905756 8.27761818,0.108292896 5.94951407,0.00202338341" id="Fill-8" stroke="#000000" stroke-width="3"></path>
                    <path d="M5.94951407,0.00202338341 C4.04377309,-0.0850679792 4.15051434,2.66101745 4.25635766,4.04376205 C4.25635766,4.04376205 1.29330587,1.81007166 0.235097138,3.19281626 C-0.823111592,4.57556086 2.03409688,5.42639383 2.03409688,5.42639383 C2.03409688,5.42639383 0.34094046,5.00097734 0.764201503,6.70275611 C1.18746255,8.40453487 4.25635766,6.70275611 4.25635766,6.70275611 C4.25635766,6.70275611 3.83668833,8.40453487 4.8931012,8.82995136 C5.94951407,9.25548066 7.0077228,6.59637378 7.0077228,6.59637378 C7.0077228,6.59637378 9.65335687,8.19177022 10.3941479,7.02179027 C11.1348266,5.85181032 8.17177486,5.42639383 8.17177486,5.42639383 C8.17177486,5.42639383 10.0766179,5.21362918 9.23009583,3.8309974 C8.3834615,2.4482528 6.7961484,4.43905756 6.7961484,4.43905756 C6.7961484,4.43905756 8.27761818,0.108292896 5.94951407,0.00202338341" id="Fill-8" fill="url(#linearGradient-2)"></path>
                </g>
            </g>
            <g id="Tomato" transform="translate(168.000000, 45.000000) rotate(2.000000) translate(-168.000000, -45.000000) translate(154.000000, 31.000000)">
                <path d="M14.4251658,7.50197984 C14.4251658,7.50197984 11.9020849,4.79270558 7.38042352,4.88011947 C2.85876219,4.96753335 -2.01059863,8.2886121 0.858890606,18.5139973 C3.72828762,28.7394752 17.2062084,28.8267964 22.9451869,24.1947875 C28.6841654,19.5627785 28.2494026,13.4334244 26.6842015,9.98701847 C25.1190927,6.54061249 21.2959661,4.0935799 14.4251658,7.50197984" id="Fill-7" stroke="#111111" stroke-width="2" fill="url(#linearGradient-1)"></path>
                <g id="Group-3" transform="translate(8.493333, 0.000000)"></g>
                <g id="Group-5" transform="translate(9.659664, 0.336143)">
                    <path d="M5.94951407,0.00202338341 C4.04377309,-0.0850679792 4.15051434,2.66101745 4.25635766,4.04376205 C4.25635766,4.04376205 1.29330587,1.81007166 0.235097138,3.19281626 C-0.823111592,4.57556086 2.03409688,5.42639383 2.03409688,5.42639383 C2.03409688,5.42639383 0.34094046,5.00097734 0.764201503,6.70275611 C1.18746255,8.40453487 4.25635766,6.70275611 4.25635766,6.70275611 C4.25635766,6.70275611 3.83668833,8.40453487 4.8931012,8.82995136 C5.94951407,9.25548066 7.0077228,6.59637378 7.0077228,6.59637378 C7.0077228,6.59637378 9.65335687,8.19177022 10.3941479,7.02179027 C11.1348266,5.85181032 8.17177486,5.42639383 8.17177486,5.42639383 C8.17177486,5.42639383 10.0766179,5.21362918 9.23009583,3.8309974 C8.3834615,2.4482528 6.7961484,4.43905756 6.7961484,4.43905756 C6.7961484,4.43905756 8.27761818,0.108292896 5.94951407,0.00202338341" id="Fill-8" stroke="#000000" stroke-width="3"></path>
                    <path d="M5.94951407,0.00202338341 C4.04377309,-0.0850679792 4.15051434,2.66101745 4.25635766,4.04376205 C4.25635766,4.04376205 1.29330587,1.81007166 0.235097138,3.19281626 C-0.823111592,4.57556086 2.03409688,5.42639383 2.03409688,5.42639383 C2.03409688,5.42639383 0.34094046,5.00097734 0.764201503,6.70275611 C1.18746255,8.40453487 4.25635766,6.70275611 4.25635766,6.70275611 C4.25635766,6.70275611 3.83668833,8.40453487 4.8931012,8.82995136 C5.94951407,9.25548066 7.0077228,6.59637378 7.0077228,6.59637378 C7.0077228,6.59637378 9.65335687,8.19177022 10.3941479,7.02179027 C11.1348266,5.85181032 8.17177486,5.42639383 8.17177486,5.42639383 C8.17177486,5.42639383 10.0766179,5.21362918 9.23009583,3.8309974 C8.3834615,2.4482528 6.7961484,4.43905756 6.7961484,4.43905756 C6.7961484,4.43905756 8.27761818,0.108292896 5.94951407,0.00202338341" id="Fill-8" fill="url(#linearGradient-2)"></path>
                </g>
            </g>
            <g id="Tomato" transform="translate(190.000000, 45.000000) rotate(-12.000000) translate(-190.000000, -45.000000) translate(176.000000, 31.000000)">
                <path d="M14.4251658,7.50197984 C14.4251658,7.50197984 11.9020849,4.79270558 7.38042352,4.88011947 C2.85876219,4.96753335 -2.01059863,8.2886121 0.858890606,18.5139973 C3.72828762,28.7394752 17.2062084,28.8267964 22.9451869,24.1947875 C28.6841654,19.5627785 28.2494026,13.4334244 26.6842015,9.98701847 C25.1190927,6.54061249 21.2959661,4.0935799 14.4251658,7.50197984" id="Fill-7" stroke="#111111" stroke-width="2" fill="url(#linearGradient-1)"></path>
                <g id="Group-3" transform="translate(8.493333, 0.000000)"></g>
                <g id="Group-5" transform="translate(9.659664, 0.336143)">
                    <path d="M5.94951407,0.00202338341 C4.04377309,-0.0850679792 4.15051434,2.66101745 4.25635766,4.04376205 C4.25635766,4.04376205 1.29330587,1.81007166 0.235097138,3.19281626 C-0.823111592,4.57556086 2.03409688,5.42639383 2.03409688,5.42639383 C2.03409688,5.42639383 0.34094046,5.00097734 0.764201503,6.70275611 C1.18746255,8.40453487 4.25635766,6.70275611 4.25635766,6.70275611 C4.25635766,6.70275611 3.83668833,8.40453487 4.8931012,8.82995136 C5.94951407,9.25548066 7.0077228,6.59637378 7.0077228,6.59637378 C7.0077228,6.59637378 9.65335687,8.19177022 10.3941479,7.02179027 C11.1348266,5.85181032 8.17177486,5.42639383 8.17177486,5.42639383 C8.17177486,5.42639383 10.0766179,5.21362918 9.23009583,3.8309974 C8.3834615,2.4482528 6.7961484,4.43905756 6.7961484,4.43905756 C6.7961484,4.43905756 8.27761818,0.108292896 5.94951407,0.00202338341" id="Fill-8" stroke="#000000" stroke-width="3"></path>
                    <path d="M5.94951407,0.00202338341 C4.04377309,-0.0850679792 4.15051434,2.66101745 4.25635766,4.04376205 C4.25635766,4.04376205 1.29330587,1.81007166 0.235097138,3.19281626 C-0.823111592,4.57556086 2.03409688,5.42639383 2.03409688,5.42639383 C2.03409688,5.42639383 0.34094046,5.00097734 0.764201503,6.70275611 C1.18746255,8.40453487 4.25635766,6.70275611 4.25635766,6.70275611 C4.25635766,6.70275611 3.83668833,8.40453487 4.8931012,8.82995136 C5.94951407,9.25548066 7.0077228,6.59637378 7.0077228,6.59637378 C7.0077228,6.59637378 9.65335687,8.19177022 10.3941479,7.02179027 C11.1348266,5.85181032 8.17177486,5.42639383 8.17177486,5.42639383 C8.17177486,5.42639383 10.0766179,5.21362918 9.23009583,3.8309974 C8.3834615,2.4482528 6.7961484,4.43905756 6.7961484,4.43905756 C6.7961484,4.43905756 8.27761818,0.108292896 5.94951407,0.00202338341" id="Fill-8" fill="url(#linearGradient-2)"></path>
                </g>
            </g>
            <g id="Tomato" transform="translate(203.000000, 45.000000) rotate(-9.000000) translate(-203.000000, -45.000000) translate(189.000000, 31.000000)">
                <path d="M14.4251658,7.50197984 C14.4251658,7.50197984 11.9020849,4.79270558 7.38042352,4.88011947 C2.85876219,4.96753335 -2.01059863,8.2886121 0.858890606,18.5139973 C3.72828762,28.7394752 17.2062084,28.8267964 22.9451869,24.1947875 C28.6841654,19.5627785 28.2494026,13.4334244 26.6842015,9.98701847 C25.1190927,6.54061249 21.2959661,4.0935799 14.4251658,7.50197984" id="Fill-7" stroke="#111111" stroke-width="2" fill="url(#linearGradient-1)"></path>
                <g id="Group-3" transform="translate(8.493333, 0.000000)"></g>
                <g id="Group-5" transform="translate(9.659664, 0.336143)">
                    <path d="M5.94951407,0.00202338341 C4.04377309,-0.0850679792 4.15051434,2.66101745 4.25635766,4.04376205 C4.25635766,4.04376205 1.29330587,1.81007166 0.235097138,3.19281626 C-0.823111592,4.57556086 2.03409688,5.42639383 2.03409688,5.42639383 C2.03409688,5.42639383 0.34094046,5.00097734 0.764201503,6.70275611 C1.18746255,8.40453487 4.25635766,6.70275611 4.25635766,6.70275611 C4.25635766,6.70275611 3.83668833,8.40453487 4.8931012,8.82995136 C5.94951407,9.25548066 7.0077228,6.59637378 7.0077228,6.59637378 C7.0077228,6.59637378 9.65335687,8.19177022 10.3941479,7.02179027 C11.1348266,5.85181032 8.17177486,5.42639383 8.17177486,5.42639383 C8.17177486,5.42639383 10.0766179,5.21362918 9.23009583,3.8309974 C8.3834615,2.4482528 6.7961484,4.43905756 6.7961484,4.43905756 C6.7961484,4.43905756 8.27761818,0.108292896 5.94951407,0.00202338341" id="Fill-8" stroke="#000000" stroke-width="3"></path>
                    <path d="M5.94951407,0.00202338341 C4.04377309,-0.0850679792 4.15051434,2.66101745 4.25635766,4.04376205 C4.25635766,4.04376205 1.29330587,1.81007166 0.235097138,3.19281626 C-0.823111592,4.57556086 2.03409688,5.42639383 2.03409688,5.42639383 C2.03409688,5.42639383 0.34094046,5.00097734 0.764201503,6.70275611 C1.18746255,8.40453487 4.25635766,6.70275611 4.25635766,6.70275611 C4.25635766,6.70275611 3.83668833,8.40453487 4.8931012,8.82995136 C5.94951407,9.25548066 7.0077228,6.59637378 7.0077228,6.59637378 C7.0077228,6.59637378 9.65335687,8.19177022 10.3941479,7.02179027 C11.1348266,5.85181032 8.17177486,5.42639383 8.17177486,5.42639383 C8.17177486,5.42639383 10.0766179,5.21362918 9.23009583,3.8309974 C8.3834615,2.4482528 6.7961484,4.43905756 6.7961484,4.43905756 C6.7961484,4.43905756 8.27761818,0.108292896 5.94951407,0.00202338341" id="Fill-8" fill="url(#linearGradient-2)"></path>
                </g>
            </g>
            <g id="Rectangle-2">
                <use fill="black" fill-opacity="1" filter="url(#filter-5)" xlink:href="#path-4"></use>
                <use fill="url(#linearGradient-3)" fill-rule="evenodd" xlink:href="#path-4"></use>
                <rect stroke="#111111" stroke-width="2" x="6" y="46" width="228" height="13"></rect>
            </g>
        </g>
    </g>
</svg>