<?xml version="1.0" encoding="UTF-8"?>
<svg width="182px" height="282px" viewBox="0 0 182 282" version="1.1" xmlns="http://www.w3.org/2000/svg" xmlns:xlink="http://www.w3.org/1999/xlink">
    <!-- Generator: Sketch 46.1 (44463) - http://www.bohemiancoding.com/sketch -->
    <title>us-flag</title>
    <desc>Created with Sketch.</desc>
    <defs>
        <linearGradient x1="11.3040865%" y1="50%" x2="100%" y2="50%" id="linearGradient-1">
            <stop stop-color="#F2F2F2" offset="0%"></stop>
            <stop stop-color="#CCCCCC" offset="100%"></stop>
        </linearGradient>
        <polygon id="path-2" points="1.97244471 153.862687 261.972445 153.862687 261.972445 1.86268738 1.97244471 1.86268738"></polygon>
        <filter x="-2.3%" y="-3.9%" width="104.6%" height="107.9%" filterUnits="objectBoundingBox" id="filter-3">
            <feOffset dx="0" dy="0" in="SourceAlpha" result="shadowOffsetOuter1"></feOffset>
            <feGaussianBlur stdDeviation="2" in="shadowOffsetOuter1" result="shadowBlurOuter1"></feGaussianBlur>
            <feColorMatrix values="0 0 0 0 0   0 0 0 0 0   0 0 0 0 0  0 0 0 0.5 0" type="matrix" in="shadowBlurOuter1"></feColorMatrix>
        </filter>
    </defs>
    <g id="Page-1" stroke="none" stroke-width="1" fill="none" fill-rule="evenodd">
        <g id="us-flag">
            <g id="Outer" transform="translate(92.059438, 139.027555) rotate(94.000000) translate(-92.059438, -139.027555) translate(-38.940562, 61.027555)">
                <g id="Flag" transform="translate(0.000000, 0.196751)">
                    <g id="Background">
                        <use fill="black" fill-opacity="1" filter="url(#filter-3)" xlink:href="#path-2"></use>
                        <use fill="url(#linearGradient-1)" fill-rule="evenodd" xlink:href="#path-2"></use>
                    </g>
                    <g id="Red" transform="translate(0.972445, -0.000000)" fill="#57252C">
                        <polygon id="Fill-18" points="-8.8817842e-15 154.862687 261 154.862687 261 141.862687 -8.8817842e-15 141.862687"></polygon>
                        <polygon id="Fill-21" points="-7.10542736e-15 130.862687 261 130.862687 261 118.862687 -7.10542736e-15 118.862687"></polygon>
                        <polygon id="Fill-23" points="-5.32907052e-15 107.862687 261 107.862687 261 95.8626874 -5.32907052e-15 95.8626874"></polygon>
                        <polygon id="Fill-25" points="-5.32907052e-15 83.8626874 261 83.8626874 261 71.8626874 -5.32907052e-15 71.8626874"></polygon>
                        <polygon id="Fill-27" points="-3.55271368e-15 60.8626874 261 60.8626874 261 48.8626874 -3.55271368e-15 48.8626874"></polygon>
                        <polygon id="Fill-29" points="-1.77635684e-15 37.8626874 261 37.8626874 261 25.8626874 -1.77635684e-15 25.8626874"></polygon>
                        <polygon id="Fill-31" points="0 13.8626874 261 13.8626874 261 0.862687381 0 0.862687381"></polygon>
                    </g>
                    <g id="Stars" transform="translate(0.000000, -0.000000)">
                        <polygon id="Fill-32" fill="#22273A" points="0.972444714 83.8626874 118.972445 83.8626874 118.972445 0.862687381 0.972444714 0.862687381"></polygon>
                        <polygon id="Fill-33" fill="#E2E2E2" points="12.2206738 10.7809058 13.226485 13.8733343 16.4644914 13.8733343 13.839677 15.7790819 14.8454882 18.8626874 12.2206738 16.9481169 9.5914479 18.8626874 10.5972591 15.7790819 7.97244471 13.8733343 11.2148625 13.8733343"></polygon>
                        <polygon id="Fill-34" fill="#E2E2E2" points="12.2206738 24.7820657 13.226485 27.8656713 16.4644914 27.8656713 13.839677 29.7714189 14.8454882 32.8638473 12.2206738 30.9492768 9.5914479 32.8638473 10.5972591 29.7714189 7.97244471 27.8656713 11.2148625 27.8656713"></polygon>
                        <polygon id="Fill-35" fill="#E2E2E2" points="12.2206738 38.7809058 13.226485 41.8645113 16.4644914 41.8645113 13.839677 43.770259 14.8454882 46.8626874 12.2206738 44.9481169 9.5914479 46.8626874 10.5972591 43.770259 7.97244471 41.8645113 11.2148625 41.8645113"></polygon>
                        <polygon id="Fill-36" fill="#E2E2E2" points="12.2206738 52.7897287 13.226485 55.8733343 16.4644914 55.8733343 13.839677 57.7879048 14.8454882 60.8626874 12.2206738 58.9569398 9.5914479 60.8626874 10.5972591 57.7879048 7.97244471 55.8733343 11.2148625 55.8733343"></polygon>
                        <polygon id="Fill-37" fill="#E2E2E2" points="12.2206738 66.7897287 13.226485 69.8733343 16.4644914 69.8733343 13.839677 71.7790819 14.8454882 74.8626874 12.2206738 72.9569398 9.5914479 74.8626874 10.5972591 71.7790819 7.97244471 69.8733343 11.2148625 69.8733343"></polygon>
                        <polygon id="Fill-38" fill="#E2E2E2" points="22.2206738 18.7897287 23.226485 21.8733343 26.4689028 21.8733343 23.839677 23.7790819 24.8454882 26.8626874 22.2206738 24.9569398 19.5914479 26.8626874 20.5972591 23.7790819 17.9724447 21.8733343 21.2148625 21.8733343"></polygon>
                        <polygon id="Fill-39" fill="#E2E2E2" points="22.2206738 31.7897287 23.226485 34.8645113 26.4689028 34.8645113 23.839677 36.7790819 24.8454882 39.8626874 22.2206738 37.9569398 19.5914479 39.8626874 20.5972591 36.7790819 17.9724447 34.8645113 21.2148625 34.8645113"></polygon>
                        <polygon id="Fill-40" fill="#E2E2E2" points="22.2206738 45.7809058 23.226485 48.8645113 26.4689028 48.8645113 23.839677 50.7790819 24.8454882 53.8626874 22.2206738 51.9569398 19.5914479 53.8626874 20.5972591 50.7790819 17.9724447 48.8645113 21.2148625 48.8645113"></polygon>
                        <polygon id="Fill-41" fill="#E2E2E2" points="22.2206738 59.7897287 23.226485 62.8733343 26.4689028 62.8733343 23.839677 64.7879048 24.8454882 67.8626874 22.2206738 65.9569398 19.5914479 67.8626874 20.5972591 64.7879048 17.9724447 62.8733343 21.2148625 62.8733343"></polygon>
                        <polygon id="Fill-42" fill="#E2E2E2" points="31.2206738 10.7809058 32.2220736 13.8733343 35.4644914 13.8733343 32.839677 15.7790819 33.8454882 18.8626874 31.2206738 16.9481169 28.5914479 18.8626874 29.5972591 15.7790819 26.9724447 13.8733343 30.2148625 13.8733343"></polygon>
                        <polygon id="Fill-43" fill="#E2E2E2" points="31.2206738 24.7820657 32.2220736 27.8656713 35.4644914 27.8656713 32.839677 29.7714189 33.8454882 32.8638473 31.2206738 30.9492768 28.5914479 32.8638473 29.5972591 29.7714189 26.9724447 27.8656713 30.2148625 27.8656713"></polygon>
                        <polygon id="Fill-44" fill="#E2E2E2" points="31.2206738 38.7809058 32.2220736 41.8645113 35.4644914 41.8645113 32.839677 43.770259 33.8454882 46.8626874 31.2206738 44.9481169 28.5914479 46.8626874 29.5972591 43.770259 26.9724447 41.8645113 30.2148625 41.8645113"></polygon>
                        <polygon id="Fill-45" fill="#E2E2E2" points="31.2206738 52.7897287 32.2220736 55.8733343 35.4644914 55.8733343 32.839677 57.7879048 33.8454882 60.8626874 31.2206738 58.9569398 28.5914479 60.8626874 29.5972591 57.7879048 26.9724447 55.8733343 30.2148625 55.8733343"></polygon>
                        <polygon id="Fill-46" fill="#E2E2E2" points="31.2206738 66.7897287 32.2220736 69.8733343 35.4644914 69.8733343 32.839677 71.7790819 33.8454882 74.8626874 31.2206738 72.9569398 28.5914479 74.8626874 29.5972591 71.7790819 26.9724447 69.8733343 30.2148625 69.8733343"></polygon>
                        <polygon id="Fill-47" fill="#E2E2E2" points="41.2206738 18.7897287 42.226485 21.8733343 45.4689028 21.8733343 42.8440884 23.7790819 43.8454882 26.8626874 41.2206738 24.9569398 38.5914479 26.8626874 39.5972591 23.7790819 36.9724447 21.8733343 40.2148625 21.8733343"></polygon>
                        <polygon id="Fill-48" fill="#E2E2E2" points="41.2206738 31.7897287 42.226485 34.8645113 45.4689028 34.8645113 42.8440884 36.7790819 43.8454882 39.8626874 41.2206738 37.9569398 38.5914479 39.8626874 39.5972591 36.7790819 36.9724447 34.8645113 40.2148625 34.8645113"></polygon>
                        <polygon id="Fill-49" fill="#E2E2E2" points="41.2206738 45.7809058 42.226485 48.8645113 45.4689028 48.8645113 42.8440884 50.7790819 43.8454882 53.8626874 41.2206738 51.9569398 38.5914479 53.8626874 39.5972591 50.7790819 36.9724447 48.8645113 40.2148625 48.8645113"></polygon>
                        <polygon id="Fill-50" fill="#E2E2E2" points="41.2206738 59.7897287 42.226485 62.8733343 45.4689028 62.8733343 42.8440884 64.7879048 43.8454882 67.8626874 41.2206738 65.9569398 38.5914479 67.8626874 39.5972591 64.7879048 36.9724447 62.8733343 40.2148625 62.8733343"></polygon>
                        <polygon id="Fill-51" fill="#E2E2E2" points="50.2162623 10.7809058 51.2220736 13.8733343 54.4644914 13.8733343 51.839677 15.7790819 52.8410767 18.8626874 50.2162623 16.9481169 47.5914479 18.8626874 48.5972591 15.7790819 45.9724447 13.8733343 49.2148625 13.8733343"></polygon>
                        <polygon id="Fill-52" fill="#E2E2E2" points="50.2162623 24.7820657 51.2220736 27.8656713 54.4644914 27.8656713 51.839677 29.7714189 52.8410767 32.8638473 50.2162623 30.9492768 47.5914479 32.8638473 48.5972591 29.7714189 45.9724447 27.8656713 49.2148625 27.8656713"></polygon>
                        <polygon id="Fill-53" fill="#E2E2E2" points="50.2162623 38.7809058 51.2220736 41.8645113 54.4644914 41.8645113 51.839677 43.770259 52.8410767 46.8626874 50.2162623 44.9481169 47.5914479 46.8626874 48.5972591 43.770259 45.9724447 41.8645113 49.2148625 41.8645113"></polygon>
                        <polygon id="Fill-54" fill="#E2E2E2" points="50.2162623 52.7897287 51.2220736 55.8733343 54.4644914 55.8733343 51.839677 57.7879048 52.8410767 60.8626874 50.2162623 58.9569398 47.5914479 60.8626874 48.5972591 57.7879048 45.9724447 55.8733343 49.2148625 55.8733343"></polygon>
                        <polygon id="Fill-55" fill="#E2E2E2" points="50.2162623 66.7897287 51.2220736 69.8733343 54.4644914 69.8733343 51.839677 71.7790819 52.8410767 74.8626874 50.2162623 72.9569398 47.5914479 74.8626874 48.5972591 71.7790819 45.9724447 69.8733343 49.2148625 69.8733343"></polygon>
                        <polygon id="Fill-56" fill="#E2E2E2" points="60.2206738 18.7897287 61.226485 21.8733343 64.4644914 21.8733343 61.839677 23.7790819 62.8454882 26.8626874 60.2206738 24.9569398 57.5958593 26.8626874 58.5972591 23.7790819 55.9724447 21.8733343 59.2148625 21.8733343"></polygon>
                        <polygon id="Fill-57" fill="#E2E2E2" points="60.2206738 31.7897287 61.226485 34.8645113 64.4644914 34.8645113 61.839677 36.7790819 62.8454882 39.8626874 60.2206738 37.9569398 57.5958593 39.8626874 58.5972591 36.7790819 55.9724447 34.8645113 59.2148625 34.8645113"></polygon>
                        <polygon id="Fill-58" fill="#E2E2E2" points="60.2206738 45.7809058 61.226485 48.8645113 64.4644914 48.8645113 61.839677 50.7790819 62.8454882 53.8626874 60.2206738 51.9569398 57.5958593 53.8626874 58.5972591 50.7790819 55.9724447 48.8645113 59.2148625 48.8645113"></polygon>
                        <polygon id="Fill-59" fill="#E2E2E2" points="60.2206738 59.7897287 61.226485 62.8733343 64.4644914 62.8733343 61.839677 64.7879048 62.8454882 67.8626874 60.2206738 65.9569398 57.5958593 67.8626874 58.5972591 64.7879048 55.9724447 62.8733343 59.2148625 62.8733343"></polygon>
                        <polygon id="Fill-60" fill="#E2E2E2" points="69.2162623 10.7809058 70.2220736 13.8733343 73.4644914 13.8733343 70.839677 15.7790819 71.8410767 18.8626874 69.2162623 16.9481169 66.5914479 18.8626874 67.5972591 15.7790819 64.9724447 13.8733343 68.2148625 13.8733343"></polygon>
                        <polygon id="Fill-61" fill="#E2E2E2" points="69.2162623 24.7820657 70.2220736 27.8656713 73.4644914 27.8656713 70.839677 29.7714189 71.8410767 32.8638473 69.2162623 30.9492768 66.5914479 32.8638473 67.5972591 29.7714189 64.9724447 27.8656713 68.2148625 27.8656713"></polygon>
                        <polygon id="Fill-62" fill="#E2E2E2" points="69.2162623 38.7809058 70.2220736 41.8645113 73.4644914 41.8645113 70.839677 43.770259 71.8410767 46.8626874 69.2162623 44.9481169 66.5914479 46.8626874 67.5972591 43.770259 64.9724447 41.8645113 68.2148625 41.8645113"></polygon>
                        <polygon id="Fill-63" fill="#E2E2E2" points="69.2162623 52.7897287 70.2220736 55.8733343 73.4644914 55.8733343 70.839677 57.7879048 71.8410767 60.8626874 69.2162623 58.9569398 66.5914479 60.8626874 67.5972591 57.7879048 64.9724447 55.8733343 68.2148625 55.8733343"></polygon>
                        <polygon id="Fill-64" fill="#E2E2E2" points="69.2162623 66.7897287 70.2220736 69.8733343 73.4644914 69.8733343 70.839677 71.7790819 71.8410767 74.8626874 69.2162623 72.9569398 66.5914479 74.8626874 67.5972591 71.7790819 64.9724447 69.8733343 68.2148625 69.8733343"></polygon>
                        <polygon id="Fill-65" fill="#E2E2E2" points="79.2206738 18.7897287 80.2220736 21.8733343 83.4644914 21.8733343 80.839677 23.7790819 81.8454882 26.8626874 79.2206738 24.9569398 76.5914479 26.8626874 77.5972591 23.7790819 74.9724447 21.8733343 78.2148625 21.8733343"></polygon>
                        <polygon id="Fill-66" fill="#E2E2E2" points="79.2206738 31.7897287 80.2220736 34.8645113 83.4644914 34.8645113 80.839677 36.7790819 81.8454882 39.8626874 79.2206738 37.9569398 76.5914479 39.8626874 77.5972591 36.7790819 74.9724447 34.8645113 78.2148625 34.8645113"></polygon>
                        <polygon id="Fill-67" fill="#E2E2E2" points="79.2206738 45.7809058 80.2220736 48.8645113 83.4644914 48.8645113 80.839677 50.7790819 81.8454882 53.8626874 79.2206738 51.9569398 76.5914479 53.8626874 77.5972591 50.7790819 74.9724447 48.8645113 78.2148625 48.8645113"></polygon>
                        <polygon id="Fill-68" fill="#E2E2E2" points="79.2206738 59.7897287 80.2220736 62.8733343 83.4644914 62.8733343 80.839677 64.7879048 81.8454882 67.8626874 79.2206738 65.9569398 76.5914479 67.8626874 77.5972591 64.7879048 74.9724447 62.8733343 78.2148625 62.8733343"></polygon>
                        <polygon id="Fill-69" fill="#E2E2E2" points="89.2206738 10.7809058 90.226485 13.8733343 93.4689028 13.8733343 90.8440884 15.7790819 91.8454882 18.8626874 89.2206738 16.9481169 86.5958593 18.8626874 87.5972591 15.7790819 84.9724447 13.8733343 88.2148625 13.8733343"></polygon>
                        <polygon id="Fill-70" fill="#E2E2E2" points="89.2206738 24.7820657 90.226485 27.8656713 93.4689028 27.8656713 90.8440884 29.7714189 91.8454882 32.8638473 89.2206738 30.9492768 86.5958593 32.8638473 87.5972591 29.7714189 84.9724447 27.8656713 88.2148625 27.8656713"></polygon>
                        <polygon id="Fill-71" fill="#E2E2E2" points="89.2206738 38.7809058 90.226485 41.8645113 93.4689028 41.8645113 90.8440884 43.770259 91.8454882 46.8626874 89.2206738 44.9481169 86.5958593 46.8626874 87.5972591 43.770259 84.9724447 41.8645113 88.2148625 41.8645113"></polygon>
                        <polygon id="Fill-72" fill="#E2E2E2" points="89.2206738 52.7897287 90.226485 55.8733343 93.4689028 55.8733343 90.8440884 57.7879048 91.8454882 60.8626874 89.2206738 58.9569398 86.5958593 60.8626874 87.5972591 57.7879048 84.9724447 55.8733343 88.2148625 55.8733343"></polygon>
                        <polygon id="Fill-73" fill="#E2E2E2" points="89.2206738 66.7897287 90.226485 69.8733343 93.4689028 69.8733343 90.8440884 71.7790819 91.8454882 74.8626874 89.2206738 72.9569398 86.5958593 74.8626874 87.5972591 71.7790819 84.9724447 69.8733343 88.2148625 69.8733343"></polygon>
                        <polygon id="Fill-74" fill="#E2E2E2" points="98.2162623 18.7897287 99.2220736 21.8733343 102.464491 21.8733343 99.839677 23.7790819 100.841077 26.8626874 98.2162623 24.9569398 95.5914479 26.8626874 96.5972591 23.7790819 93.9724447 21.8733343 97.2148625 21.8733343"></polygon>
                        <polygon id="Fill-75" fill="#E2E2E2" points="98.2162623 31.7897287 99.2220736 34.8645113 102.464491 34.8645113 99.839677 36.7790819 100.841077 39.8626874 98.2162623 37.9569398 95.5914479 39.8626874 96.5972591 36.7790819 93.9724447 34.8645113 97.2148625 34.8645113"></polygon>
                        <polygon id="Fill-76" fill="#E2E2E2" points="98.2162623 45.7809058 99.2220736 48.8645113 102.464491 48.8645113 99.839677 50.7790819 100.841077 53.8626874 98.2162623 51.9569398 95.5914479 53.8626874 96.5972591 50.7790819 93.9724447 48.8645113 97.2148625 48.8645113"></polygon>
                        <polygon id="Fill-77" fill="#E2E2E2" points="98.2162623 59.7897287 99.2220736 62.8733343 102.464491 62.8733343 99.839677 64.7879048 100.841077 67.8626874 98.2162623 65.9569398 95.5914479 67.8626874 96.5972591 64.7879048 93.9724447 62.8733343 97.2148625 62.8733343"></polygon>
                        <polygon id="Fill-78" fill="#E2E2E2" points="108.220674 10.7809058 109.226485 13.8733343 112.468903 13.8733343 109.844088 15.7790819 110.8499 18.8626874 108.220674 16.9481169 105.591448 18.8626874 106.601671 15.7790819 103.972445 13.8733343 107.214863 13.8733343"></polygon>
                        <polygon id="Fill-79" fill="#E2E2E2" points="108.220674 24.7820657 109.226485 27.8656713 112.468903 27.8656713 109.844088 29.7714189 110.8499 32.8638473 108.220674 30.9492768 105.591448 32.8638473 106.601671 29.7714189 103.972445 27.8656713 107.214863 27.8656713"></polygon>
                        <polygon id="Fill-80" fill="#E2E2E2" points="108.220674 38.7809058 109.226485 41.8645113 112.468903 41.8645113 109.844088 43.770259 110.8499 46.8626874 108.220674 44.9481169 105.591448 46.8626874 106.601671 43.770259 103.972445 41.8645113 107.214863 41.8645113"></polygon>
                        <polygon id="Fill-81" fill="#E2E2E2" points="108.220674 52.7897287 109.226485 55.8733343 112.468903 55.8733343 109.844088 57.7879048 110.8499 60.8626874 108.220674 58.9569398 105.591448 60.8626874 106.601671 57.7879048 103.972445 55.8733343 107.214863 55.8733343"></polygon>
                        <polygon id="Fill-82" fill="#E2E2E2" points="108.220674 66.7897287 109.226485 69.8733343 112.468903 69.8733343 109.844088 71.7790819 110.8499 74.8626874 108.220674 72.9569398 105.591448 74.8626874 106.601671 71.7790819 103.972445 69.8733343 107.214863 69.8733343"></polygon>
                    </g>
                    <path d="M1.47244471,154.362687 L1.47244471,1.36268738 L262.472445,1.36268738 L262.472445,154.362687 L1.47244471,154.362687 Z" id="Background" stroke="#000000"></path>
                </g>
            </g>
        </g>
    </g>
</svg>